G04 #@! TF.GenerationSoftware,KiCad,Pcbnew,(6.0.2)*
G04 #@! TF.CreationDate,2022-06-23T15:05:51+02:00*
G04 #@! TF.ProjectId,cup_sense,6375705f-7365-46e7-9365-2e6b69636164,rev?*
G04 #@! TF.SameCoordinates,Original*
G04 #@! TF.FileFunction,Copper,L1,Top*
G04 #@! TF.FilePolarity,Positive*
%FSLAX46Y46*%
G04 Gerber Fmt 4.6, Leading zero omitted, Abs format (unit mm)*
G04 Created by KiCad (PCBNEW (6.0.2)) date 2022-06-23 15:05:51*
%MOMM*%
%LPD*%
G01*
G04 APERTURE LIST*
G04 Aperture macros list*
%AMRoundRect*
0 Rectangle with rounded corners*
0 $1 Rounding radius*
0 $2 $3 $4 $5 $6 $7 $8 $9 X,Y pos of 4 corners*
0 Add a 4 corners polygon primitive as box body*
4,1,4,$2,$3,$4,$5,$6,$7,$8,$9,$2,$3,0*
0 Add four circle primitives for the rounded corners*
1,1,$1+$1,$2,$3*
1,1,$1+$1,$4,$5*
1,1,$1+$1,$6,$7*
1,1,$1+$1,$8,$9*
0 Add four rect primitives between the rounded corners*
20,1,$1+$1,$2,$3,$4,$5,0*
20,1,$1+$1,$4,$5,$6,$7,0*
20,1,$1+$1,$6,$7,$8,$9,0*
20,1,$1+$1,$8,$9,$2,$3,0*%
%AMRotRect*
0 Rectangle, with rotation*
0 The origin of the aperture is its center*
0 $1 length*
0 $2 width*
0 $3 Rotation angle, in degrees counterclockwise*
0 Add horizontal line*
21,1,$1,$2,0,0,$3*%
%AMFreePoly0*
4,1,6,1.000000,0.000000,0.500000,-0.750000,-0.500000,-0.750000,-0.500000,0.750000,0.500000,0.750000,1.000000,0.000000,1.000000,0.000000,$1*%
%AMFreePoly1*
4,1,6,0.500000,-0.750000,-0.650000,-0.750000,-0.150000,0.000000,-0.650000,0.750000,0.500000,0.750000,0.500000,-0.750000,0.500000,-0.750000,$1*%
G04 Aperture macros list end*
G04 #@! TA.AperFunction,EtchedComponent*
%ADD10C,0.200000*%
G04 #@! TD*
G04 #@! TA.AperFunction,SMDPad,CuDef*
%ADD11RoundRect,0.225000X-0.329006X0.069856X-0.104006X-0.319856X0.329006X-0.069856X0.104006X0.319856X0*%
G04 #@! TD*
G04 #@! TA.AperFunction,SMDPad,CuDef*
%ADD12RotRect,3.750000X1.700000X210.000000*%
G04 #@! TD*
G04 #@! TA.AperFunction,SMDPad,CuDef*
%ADD13R,1.700000X3.750000*%
G04 #@! TD*
G04 #@! TA.AperFunction,SMDPad,CuDef*
%ADD14R,1.500000X1.000000*%
G04 #@! TD*
G04 #@! TA.AperFunction,SMDPad,CuDef*
%ADD15R,2.000000X2.000000*%
G04 #@! TD*
G04 #@! TA.AperFunction,SMDPad,CuDef*
%ADD16RoundRect,0.225000X0.104006X-0.319856X0.329006X0.069856X-0.104006X0.319856X-0.329006X-0.069856X0*%
G04 #@! TD*
G04 #@! TA.AperFunction,SMDPad,CuDef*
%ADD17RoundRect,0.225000X-0.104006X0.319856X-0.329006X-0.069856X0.104006X-0.319856X0.329006X0.069856X0*%
G04 #@! TD*
G04 #@! TA.AperFunction,ComponentPad*
%ADD18C,6.000000*%
G04 #@! TD*
G04 #@! TA.AperFunction,SMDPad,CuDef*
%ADD19RotRect,3.750000X1.700000X330.000000*%
G04 #@! TD*
G04 #@! TA.AperFunction,SMDPad,CuDef*
%ADD20RotRect,2.000000X2.000000X60.000000*%
G04 #@! TD*
G04 #@! TA.AperFunction,SMDPad,CuDef*
%ADD21RotRect,1.500000X1.000000X60.000000*%
G04 #@! TD*
G04 #@! TA.AperFunction,SMDPad,CuDef*
%ADD22FreePoly0,180.000000*%
G04 #@! TD*
G04 #@! TA.AperFunction,SMDPad,CuDef*
%ADD23FreePoly1,180.000000*%
G04 #@! TD*
G04 #@! TA.AperFunction,SMDPad,CuDef*
%ADD24RoundRect,0.225000X0.225000X0.250000X-0.225000X0.250000X-0.225000X-0.250000X0.225000X-0.250000X0*%
G04 #@! TD*
G04 #@! TA.AperFunction,SMDPad,CuDef*
%ADD25RotRect,2.000000X2.000000X120.000000*%
G04 #@! TD*
G04 #@! TA.AperFunction,SMDPad,CuDef*
%ADD26RotRect,1.500000X1.000000X120.000000*%
G04 #@! TD*
G04 #@! TA.AperFunction,SMDPad,CuDef*
%ADD27RotRect,1.500000X1.000000X300.000000*%
G04 #@! TD*
G04 #@! TA.AperFunction,SMDPad,CuDef*
%ADD28RotRect,2.000000X2.000000X300.000000*%
G04 #@! TD*
G04 #@! TA.AperFunction,ComponentPad*
%ADD29C,2.000000*%
G04 #@! TD*
G04 #@! TA.AperFunction,ComponentPad*
%ADD30R,1.700000X1.700000*%
G04 #@! TD*
G04 #@! TA.AperFunction,ComponentPad*
%ADD31O,1.700000X1.700000*%
G04 #@! TD*
G04 #@! TA.AperFunction,SMDPad,CuDef*
%ADD32RoundRect,0.225000X-0.225000X-0.250000X0.225000X-0.250000X0.225000X0.250000X-0.225000X0.250000X0*%
G04 #@! TD*
G04 #@! TA.AperFunction,SMDPad,CuDef*
%ADD33RoundRect,0.225000X0.329006X-0.069856X0.104006X0.319856X-0.329006X0.069856X-0.104006X-0.319856X0*%
G04 #@! TD*
G04 #@! TA.AperFunction,SMDPad,CuDef*
%ADD34RotRect,2.000000X2.000000X240.000000*%
G04 #@! TD*
G04 #@! TA.AperFunction,SMDPad,CuDef*
%ADD35RotRect,1.500000X1.000000X240.000000*%
G04 #@! TD*
G04 #@! TA.AperFunction,ViaPad*
%ADD36C,0.800000*%
G04 #@! TD*
G04 #@! TA.AperFunction,Conductor*
%ADD37C,0.250000*%
G04 #@! TD*
G04 #@! TA.AperFunction,Conductor*
%ADD38C,1.000000*%
G04 #@! TD*
G04 APERTURE END LIST*
D10*
X54650850Y27139177D02*
G75*
G03*
X54650850Y27139177I0J0D01*
G01*
D11*
X27418999Y25599340D03*
X28193999Y24257000D03*
D12*
X45301684Y14423182D03*
X44073253Y16646886D03*
X42803253Y18846591D03*
X41533253Y21046295D03*
X40263253Y23246000D03*
X38993253Y25445705D03*
X37723253Y27645409D03*
X36453253Y29845114D03*
X35183253Y32044818D03*
D13*
X-10160000Y46492000D03*
X-7620000Y46444000D03*
X-5080000Y46444000D03*
X-2540000Y46444000D03*
X0Y46444000D03*
X2540000Y46444000D03*
X5080000Y46444000D03*
X7620000Y46444000D03*
X10160000Y46492000D03*
D14*
X2450000Y-36600000D03*
D15*
X3810000Y-36524000D03*
D14*
X2450000Y-33400000D03*
D15*
X3810000Y-33476000D03*
D14*
X-2450000Y-33400000D03*
D15*
X-3810000Y-33476000D03*
D14*
X-2450000Y-36600000D03*
D15*
X-3810000Y-36524000D03*
D12*
X-35183253Y-32044818D03*
X-36411684Y-29821114D03*
X-37681684Y-27621409D03*
X-38951684Y-25421705D03*
X-40221684Y-23222000D03*
X-41491684Y-21022295D03*
X-42761684Y-18822591D03*
X-44031684Y-16622886D03*
X-45343253Y-14447182D03*
D16*
X-35820500Y10976660D03*
X-35045500Y12319000D03*
D17*
X35439499Y-11266830D03*
X34664499Y-12609170D03*
D18*
X0Y6000000D03*
D19*
X-35141684Y32020818D03*
X-36453253Y29845114D03*
X-37723253Y27645409D03*
X-38993253Y25445705D03*
X-40263253Y23246000D03*
X-41533253Y21046295D03*
X-42803253Y18846591D03*
X-44073253Y16646886D03*
X-45343253Y14447182D03*
D20*
X-33535712Y14962443D03*
D21*
X-32921530Y16178238D03*
D20*
X-30896066Y13438443D03*
D21*
X-30150248Y14578238D03*
D20*
X-27086066Y20037557D03*
D21*
X-27700248Y18821762D03*
D20*
X-29725712Y21561557D03*
D21*
X-30471530Y20421762D03*
D22*
X-38010000Y0D03*
D23*
X-39460000Y0D03*
D24*
X8268000Y-36576000D03*
X6718000Y-36576000D03*
D13*
X-10160000Y-46444000D03*
X-7620000Y-46492000D03*
X-5080000Y-46492000D03*
X-2540000Y-46492000D03*
X0Y-46492000D03*
X2540000Y-46492000D03*
X5080000Y-46492000D03*
X7620000Y-46492000D03*
X10160000Y-46492000D03*
D14*
X-2450000Y36600000D03*
D15*
X-3810000Y36524000D03*
D14*
X-2450000Y33400000D03*
D15*
X-3810000Y33476000D03*
D14*
X2450000Y33400000D03*
D15*
X3810000Y33476000D03*
X3810000Y36524000D03*
D14*
X2450000Y36600000D03*
D25*
X-29725712Y-21561557D03*
D26*
X-30471530Y-20421762D03*
D25*
X-27086066Y-20037557D03*
D26*
X-27700248Y-18821762D03*
D25*
X-30896066Y-13438443D03*
D26*
X-30150248Y-14578238D03*
X-32921530Y-16178238D03*
D25*
X-33535712Y-14962443D03*
D22*
X-38010000Y2540000D03*
D23*
X-39460000Y2540000D03*
D27*
X30471530Y20421762D03*
D28*
X29725712Y21561557D03*
X27086066Y20037557D03*
D27*
X27700248Y18821762D03*
X30150248Y14578238D03*
D28*
X30896066Y13438443D03*
X33535712Y14962443D03*
D27*
X32921530Y16178238D03*
D22*
X-38010000Y5080000D03*
D23*
X-39460000Y5080000D03*
D22*
X-38010000Y-2540000D03*
D23*
X-39460000Y-2540000D03*
D22*
X-38010000Y-5080000D03*
D23*
X-39460000Y-5080000D03*
D29*
X-10000000Y-17000000D03*
X20000000Y0D03*
X-10000000Y17000000D03*
D30*
X-51435000Y2560000D03*
D31*
X-48895000Y2560000D03*
X-51435000Y20000D03*
X-48895000Y20000D03*
X-51435000Y-2520000D03*
X-48895000Y-2520000D03*
D18*
X0Y-6000000D03*
D32*
X-8153999Y36322000D03*
X-6603999Y36322000D03*
D19*
X45343253Y-14447182D03*
X44031684Y-16622886D03*
X42761684Y-18822591D03*
X41491684Y-21022295D03*
X40221684Y-23222000D03*
X38951684Y-25421705D03*
X37681684Y-27621409D03*
X36411684Y-29821114D03*
X35183253Y-32044818D03*
D33*
X-27418999Y-25599340D03*
X-28193999Y-24257000D03*
D34*
X33535712Y-14962443D03*
D35*
X32921530Y-16178238D03*
X30150248Y-14578238D03*
D34*
X30896066Y-13438443D03*
D35*
X27700248Y-18821762D03*
D34*
X27086066Y-20037557D03*
X29725712Y-21561557D03*
D35*
X30471530Y-20421762D03*
D36*
X10795000Y2540001D03*
X-51040000Y8730000D03*
X-33940000Y7460001D03*
X-42514460Y-21612795D03*
X39974460Y-26012205D03*
X10795000Y-5715000D03*
X2540000Y-47625000D03*
X-53086000Y3937000D03*
X-42514460Y21612795D03*
X2540000Y47625000D03*
X39974460Y26012205D03*
X-52451000Y-5588000D03*
X-11260000Y3200000D03*
X-39116000Y-22352000D03*
X0Y44958000D03*
X-27690000Y-1580000D03*
X-40132000Y7620001D03*
X39116000Y-22352000D03*
X39083162Y22400082D03*
X0Y-45085000D03*
X-39116000Y22606000D03*
X-10089700Y38410700D03*
X-10160000Y44958000D03*
X44112307Y-13443063D03*
X38407029Y-10230296D03*
X-28345845Y27946954D03*
X-10179000Y-38500000D03*
X-10160000Y-45085000D03*
X-28300290Y-27824386D03*
X44163162Y13601264D03*
X-33935269Y-31158918D03*
X-34058123Y31223000D03*
X38469884Y10292309D03*
X-29599430Y-12655993D03*
X-2540001Y45085000D03*
X-34545222Y-22669500D03*
X-26234452Y21140808D03*
X36968713Y18264310D03*
X-37844778Y-24574500D03*
X26797000Y26797000D03*
X-2540000Y-45084999D03*
X9652000Y-36576000D03*
X-34052272Y22299734D03*
X-9525000Y36322000D03*
X-2540001Y-41275000D03*
X-2540000Y41275001D03*
X40384778Y20256501D03*
X31667008Y12200430D03*
X40384778Y-20129500D03*
X-37846000Y12319000D03*
X5432555Y33214237D03*
X-5461000Y-33274000D03*
X37085222Y-18224500D03*
X-26670001Y-26797000D03*
X36195000Y-10033000D03*
X-37971778Y24574500D03*
X26234452Y-21140808D03*
X-35134067Y-29112811D03*
X42766767Y-15892586D03*
X41623162Y18000673D03*
X-32578567Y24577567D03*
X-7591800Y40510200D03*
X-5016200Y-40500000D03*
X-31214672Y-26927638D03*
X-36464164Y26859815D03*
X-5080000Y-45085000D03*
X37620535Y15763425D03*
X38865625Y-13646740D03*
X-7594600Y44958000D03*
X38188891Y13102901D03*
X41487470Y-18057594D03*
X-5105400Y44958000D03*
X36924785Y-15393997D03*
X-35181464Y29081517D03*
X-36416767Y-26891109D03*
X-7569200Y-39624001D03*
X-30595561Y26264123D03*
X-7620001Y-45085000D03*
X-5117599Y39510201D03*
X-31665405Y-24147909D03*
X42893162Y15800970D03*
X-44323000Y762000D03*
X-35560000Y-5080000D03*
X-35560000Y-2540001D03*
X-35560000Y0D03*
X-35559999Y2540000D03*
X-35560000Y5080000D03*
X-29830000Y-5580000D03*
X-20040000Y-5520000D03*
X-46355000Y-8344500D03*
X-42848989Y-13003988D03*
X-42825269Y-15760986D03*
X33356658Y-27776797D03*
X7631200Y42810200D03*
X7620001Y-45085000D03*
X33230294Y27967547D03*
X7748000Y-42800000D03*
X35273162Y28999195D03*
X-42948122Y15825068D03*
X35222307Y-28840997D03*
X-40732261Y-14539655D03*
X7620000Y44958000D03*
X-40608566Y14499901D03*
X-41678123Y18024773D03*
X-39026034Y16448324D03*
X33952838Y-25144184D03*
X33851873Y25290939D03*
X5119200Y-42000000D03*
X36492308Y-26641292D03*
X5080000Y44958000D03*
X36543162Y26799491D03*
X-38988999Y-16510000D03*
X-41555269Y-17960691D03*
X5053200Y42010199D03*
X5080000Y-45085000D03*
X-14920000Y1880000D03*
X-41910000Y-6984999D03*
D37*
X-35240000Y8760001D02*
X-51010000Y8760000D01*
X-51010000Y8760000D02*
X-51040000Y8730000D01*
X-42545000Y-9525000D02*
X-46482000Y-5588000D01*
X11429999Y1905000D02*
X11430000Y-5715000D01*
X11429999Y1905000D02*
X11430000Y-8255000D01*
X-48895000Y3175000D02*
X-49657000Y3937000D01*
X11430000Y-8255000D02*
X10160000Y-9525000D01*
X10160000Y-9525000D02*
X-42545000Y-9525000D01*
X-33940000Y7460001D02*
X-35240000Y8760001D01*
X10795000Y2540001D02*
X11429999Y1905000D01*
X11430000Y-5715000D02*
X10795000Y-5715000D01*
X-46482000Y-5588000D02*
X-52451000Y-5588000D01*
X-49657000Y3937000D02*
X-53086000Y3937000D01*
X-39460000Y-5080000D02*
X-39460000Y5080000D01*
X-39459999Y6948000D02*
X-40132000Y7620001D01*
X-21120000Y-1580000D02*
X-27690000Y-1580000D01*
X-15090000Y3200000D02*
X-11260000Y3200000D01*
X-39460000Y5080000D02*
X-39459999Y6948000D01*
X-16340000Y3200000D02*
X-19010000Y530000D01*
X-15090000Y3200000D02*
X-16340000Y3200000D01*
X-19010000Y530000D02*
X-21120000Y-1580000D01*
X-36831046Y13211250D02*
X-36832148Y13210148D01*
X-28299878Y-23941930D02*
X-29670982Y-21567110D01*
X28299878Y24068931D02*
X29670982Y21694110D01*
X34894459Y-12696750D02*
X34455640Y-12814331D01*
X-35275459Y12442750D02*
X-36606540Y13211250D01*
X-36606540Y13211250D02*
X-36748192Y13739902D01*
D38*
X-28300290Y-27824386D02*
X-28332386Y-27824386D01*
X6331000Y-38500000D02*
X22227990Y-38500000D01*
X22134350Y38410700D02*
X21164100Y38410700D01*
D37*
X-6604000Y36569500D02*
X-6282761Y36248262D01*
D38*
X-28345844Y27957889D02*
X-28278867Y28024867D01*
D37*
X6718000Y-36576000D02*
X6396762Y-36254762D01*
X6718000Y-38113000D02*
X6331000Y-38500000D01*
X-6604000Y38106500D02*
X-6217000Y38493500D01*
X-35275459Y12442750D02*
X-34836640Y12560331D01*
X34455640Y-12814331D02*
X33084537Y-15189152D01*
X-6282761Y36248262D02*
X-3540555Y36248262D01*
D38*
X-22505402Y38024803D02*
X-28278867Y28024867D01*
D37*
X28417459Y24507751D02*
X29748541Y25276250D01*
X-6604000Y36569500D02*
X-6604000Y38106500D01*
D38*
X21164100Y38410700D02*
X-10089700Y38410700D01*
X-28345845Y27946954D02*
X-28345844Y27957889D01*
X-28278867Y28024867D02*
X-36832148Y13210148D01*
X-28332386Y-27824386D02*
X-28367348Y-27859348D01*
X-10089700Y38410700D02*
X-21304700Y38410700D01*
D37*
X34894459Y-12696750D02*
X36225541Y-13465250D01*
D38*
X44463699Y0D02*
X22489767Y38059967D01*
D37*
X-36606540Y13211250D02*
X-36831046Y13211250D01*
D38*
X22231591Y-38499005D02*
X44459581Y1003D01*
X-28367348Y-27859348D02*
X-22229849Y-38489808D01*
X-10179000Y-38500000D02*
X6331000Y-38500000D01*
D37*
X-34836640Y12560331D02*
X-33465537Y14935152D01*
D38*
X-22119504Y38410700D02*
X-22505402Y38024803D01*
X-21304700Y38410700D02*
X-22119504Y38410700D01*
D37*
X29748541Y25276250D02*
X30277191Y25134598D01*
D38*
X21164100Y38410700D02*
X22139034Y38410700D01*
D37*
X-28417458Y-24380750D02*
X-28299878Y-23941930D01*
X36225541Y-13465250D02*
X36367192Y-13993902D01*
X-28448000Y-27559000D02*
X-29819104Y-25184179D01*
D38*
X-22227990Y-38500000D02*
X-10179000Y-38500000D01*
D37*
X6396762Y-36254762D02*
X3654555Y-36254761D01*
X6718000Y-36576000D02*
X6718000Y-38113000D01*
X-28417458Y-24380750D02*
X-29748541Y-25149250D01*
D38*
X-21304700Y38410700D02*
X-22122630Y38410700D01*
D37*
X28417459Y24507751D02*
X28299878Y24068931D01*
D38*
X22139034Y38410700D02*
X22489767Y38059967D01*
D37*
X-17652999Y-36322000D02*
X-17654576Y-36327881D01*
X-17654576Y-36327881D02*
X-3939709Y-36327880D01*
X-27158603Y-19857811D02*
X-17652999Y-36322000D01*
X-8141000Y36322000D02*
X-9525000Y36322000D01*
X31575158Y12225041D02*
X31667008Y12200430D01*
X-29624041Y-12747842D02*
X-29599430Y-12655993D01*
X26209841Y-21048958D02*
X26234452Y-21140808D01*
X-27362000Y-25598421D02*
X-26670001Y-26797000D01*
X30861000Y13462000D02*
X31575158Y12225041D01*
X26924000Y-19812000D02*
X26209841Y-21048958D01*
X3937000Y33147000D02*
X5365317Y33146999D01*
X27489000Y25598421D02*
X26797000Y26797000D01*
X35503000Y-11231579D02*
X36195000Y-10033000D01*
X8268000Y-36576000D02*
X9652000Y-36576000D01*
X-3965445Y-33206762D02*
X-5393762Y-33206762D01*
X-37162840Y12319000D02*
X-37846000Y12319000D01*
X-26924000Y19812000D02*
X-26209841Y21048958D01*
X-5393762Y-33206762D02*
X-5461000Y-33274000D01*
X-26209841Y21048958D02*
X-26234452Y21140808D01*
X5365317Y33146999D02*
X5432555Y33214237D01*
X-30861000Y-13462000D02*
X-29624041Y-12747842D01*
X-35820500Y10976660D02*
X-37162840Y12319000D01*
X-23380432Y40509206D02*
X-32578567Y24577567D01*
X-7591800Y40510200D02*
X-23376830Y40510200D01*
X-33535712Y-14962443D02*
X-36846863Y-16874137D01*
X-32659296Y24496838D02*
X-32578567Y24577567D01*
X-36850719Y-17165719D02*
X-31214672Y-26927638D01*
X23386292Y-40499005D02*
X23378738Y-40470815D01*
X-23382690Y-40500000D02*
X-5016200Y-40500000D01*
X23378738Y-40470815D02*
X38865625Y-13646740D01*
X46740793Y-6550D02*
X46768982Y1003D01*
X-5016200Y-40500000D02*
X23382690Y-40500000D01*
X-36850719Y-16877993D02*
X-36850719Y-17165719D01*
X38865625Y-13646740D02*
X46740793Y-6550D01*
X23179422Y40510200D02*
X23437411Y40252211D01*
X-7591800Y40510200D02*
X23179422Y40510200D01*
X-31214672Y-26927638D02*
X-23384550Y-40489808D01*
X23437411Y40252211D02*
X46659455Y30452D01*
X-32659296Y24475838D02*
X-32659296Y24496838D01*
X46659455Y30452D02*
X46773100Y1D01*
X-36846863Y-16874137D02*
X-36850719Y-16877993D01*
X22670067Y-33211067D02*
X29527500Y-21333644D01*
X3654555Y-33206762D02*
X22665763Y-33206762D01*
X22665763Y-33206762D02*
X22670067Y-33211067D01*
X40245485Y3257764D02*
X33388051Y15135186D01*
X40239604Y3256189D02*
X40245485Y3257764D01*
X30734000Y-13208001D02*
X40239604Y3256189D01*
X17652999Y36322000D02*
X17654576Y36327881D01*
X17654576Y36327881D02*
X3939709Y36327880D01*
X27158603Y19857811D02*
X17652999Y36322000D01*
X-7506201Y39510201D02*
X-22799480Y39510201D01*
X22365200Y39510200D02*
X-5117599Y39510201D01*
X-32279827Y11630000D02*
X-33260000Y11630000D01*
X-38830000Y10940000D02*
X-38830000Y12600000D01*
X-38830000Y12600000D02*
X-38009684Y13420316D01*
X-22803081Y39509205D02*
X-30451959Y26260959D01*
X45618400Y0D02*
X22896421Y39355621D01*
X-35170000Y9720000D02*
X-37610000Y9720000D01*
X-30166805Y-26743560D02*
X-30166149Y-26743736D01*
X-30166149Y-26743736D02*
X-22807200Y-39489808D01*
X-31665405Y-24147909D02*
X-30166805Y-26743560D01*
X22808941Y-39499005D02*
X45614281Y1003D01*
X22365200Y39510200D02*
X22741842Y39510200D01*
X22741842Y39510200D02*
X22896421Y39355621D01*
X-38009684Y13420316D02*
X-38009684Y13422484D01*
X-37610000Y9720000D02*
X-38830000Y10940000D01*
X-30740622Y13169205D02*
X-32279827Y11630000D01*
X-5117599Y39510201D02*
X-7506201Y39510201D01*
X-22805340Y-39500000D02*
X22805340Y-39500000D01*
X-30464117Y26248801D02*
X-30451959Y26260959D01*
X-38009684Y13422484D02*
X-30595561Y26264123D01*
X-30624158Y26248800D02*
X-30464117Y26248801D01*
X-33260000Y11630000D02*
X-35170000Y9720000D01*
X-30447471Y-26256471D02*
X-30166149Y-26743736D01*
X-44323000Y762000D02*
X-44755511Y1194511D01*
X-44755511Y1194511D02*
X-50069511Y1194511D01*
X-50069511Y1194511D02*
X-51435000Y2560000D01*
X-3721793Y33146999D02*
X-22733000Y33147000D01*
X-22737305Y33151305D02*
X-29594738Y21273882D01*
X-22733000Y33147000D02*
X-22737305Y33151305D01*
X-35560000Y-5080000D02*
X-38010000Y-5080000D01*
X-35560000Y-2540001D02*
X-38010001Y-2540000D01*
X-35560000Y0D02*
X-38010000Y0D01*
X-35559999Y2540000D02*
X-38010000Y2540001D01*
X-35560000Y5080000D02*
X-38010000Y5080000D01*
X-29830000Y-5580000D02*
X-20100000Y-5580000D01*
X-20100000Y-5580000D02*
X-20040000Y-5520000D01*
X-46265500Y-8344500D02*
X-46355000Y-8344500D01*
X35661601Y32156400D02*
X32661342Y30424200D01*
X-42672719Y-13081718D02*
X-25116601Y-43489807D01*
X-42848990Y-11761011D02*
X-46265500Y-8344500D01*
X10160000Y47000000D02*
X10160000Y43561000D01*
X-25114740Y-43500000D02*
X-25090239Y-43524501D01*
X-42848989Y-13003988D02*
X-42848990Y-11761011D01*
X-25090239Y-43524501D02*
X10148901Y-43524501D01*
X10084699Y43534701D02*
X-25084379Y43534701D01*
X-43134353Y12999648D02*
X-42729739Y12999648D01*
X10160000Y-47000000D02*
X10160000Y-43535600D01*
X-25112483Y43509203D02*
X-42723693Y13005693D01*
X25120600Y43510201D02*
X10109200Y43510200D01*
X25118343Y-43499004D02*
X50233083Y1002D01*
X10160000Y43561000D02*
X10109200Y43510200D01*
X32723876Y-30272808D02*
X32757345Y-30263840D01*
X25090239Y-43524501D02*
X25114740Y-43500000D01*
X50237201Y1D02*
X25122461Y43500007D01*
X-42729739Y12999648D02*
X-42723693Y13005693D01*
X35720732Y-32061701D02*
X32742470Y-30342202D01*
X10148901Y-43524501D02*
X25090239Y-43524501D01*
X32742470Y-30342202D02*
X32723876Y-30272808D01*
X-25084379Y43534701D02*
X-25108880Y43510200D01*
X-43130011Y-13003989D02*
X-42848989Y-13003988D01*
X-42750449Y-13003989D02*
X-42672719Y-13081718D01*
X-45863693Y-14582282D02*
X-43130011Y-13003989D01*
X10160000Y-43535600D02*
X10148901Y-43524501D01*
X32661342Y30424200D02*
X32657280Y30409038D01*
X-42848989Y-13003988D02*
X-42750449Y-13003989D01*
X10109200Y43510200D02*
X10084699Y43534701D01*
X-45876561Y14582863D02*
X-43134353Y12999648D01*
X24714200Y-42799000D02*
X49424790Y998D01*
X-24712458Y-42789803D02*
X-40824323Y-14883235D01*
X7748000Y-42800000D02*
X24710590Y-42800000D01*
X-24708340Y42809200D02*
X-40749357Y15025343D01*
X-40749357Y15025343D02*
X-40608566Y14499901D01*
X7631200Y42810200D02*
X-24704731Y42810200D01*
X49428909Y5D02*
X24718318Y42800003D01*
X24716450Y42810200D02*
X7631200Y42810200D01*
X-24710590Y-42800000D02*
X7748000Y-42800000D01*
X-40824323Y-14883235D02*
X-40732261Y-14539655D01*
X-24246460Y42009200D02*
X-38882989Y16657989D01*
X5119200Y-42000000D02*
X24248710Y-42000000D01*
X24252320Y-41999000D02*
X48501030Y998D01*
X48505148Y5D02*
X24256438Y42000003D01*
X24254570Y42010200D02*
X5053200Y42010199D01*
X5053200Y42010199D02*
X-24242850Y42010200D01*
X-24248710Y-42000000D02*
X5119200Y-42000000D01*
X-39026034Y16448324D02*
X-39026034Y16514944D01*
X-38988999Y-16510000D02*
X-38926015Y-16572986D01*
X-39026034Y16514944D02*
X-38882989Y16657989D01*
X-38926015Y-16572986D02*
X-38924985Y-16572986D01*
X-38924985Y-16572986D02*
X-24250578Y-41989803D01*
X-32294999Y-6985000D02*
X-27990000Y-2680000D01*
X-20922500Y-2680000D02*
X-16362500Y1880000D01*
X-41910000Y-6984999D02*
X-32294999Y-6985000D01*
X-16362500Y1880000D02*
X-14920000Y1880000D01*
X-27990000Y-2680000D02*
X-20922500Y-2680000D01*
M02*
