M48
; DRILL file {KiCad (6.0.2)} date Thu Jun 23 15:06:04 2022
; FORMAT={-:-/ absolute / metric / decimal}
; #@! TF.CreationDate,2022-06-23T15:06:04+02:00
; #@! TF.GenerationSoftware,Kicad,Pcbnew,(6.0.2)
; #@! TF.FileFunction,Plated,1,2,PTH
FMAT,2
METRIC
; #@! TA.AperFunction,Plated,PTH,ViaDrill
T1C0.400
; #@! TA.AperFunction,Plated,PTH,ComponentDrill
T2C1.000
; #@! TA.AperFunction,Plated,PTH,ComponentDrill
T3C5.000
%
G90
G05
T1
X-53.086Y3.937
X-52.451Y-5.588
X-51.04Y8.73
X-46.355Y-8.345
X-44.323Y0.762
X-42.948Y15.825
X-42.849Y-13.004
X-42.825Y-15.761
X-42.514Y21.613
X-42.514Y-21.613
X-41.91Y-6.985
X-41.678Y18.025
X-41.555Y-17.961
X-40.732Y-14.54
X-40.609Y14.5
X-40.132Y7.62
X-39.116Y22.606
X-39.116Y-22.352
X-39.026Y16.448
X-38.989Y-16.51
X-37.972Y24.575
X-37.846Y12.319
X-37.845Y-24.575
X-36.464Y26.86
X-36.417Y-26.891
X-35.56Y5.08
X-35.56Y0.0
X-35.56Y-2.54
X-35.56Y-5.08
X-35.56Y2.54
X-35.181Y29.082
X-35.134Y-29.113
X-34.545Y-22.669
X-34.058Y31.223
X-34.052Y22.3
X-33.94Y7.46
X-33.935Y-31.159
X-32.579Y24.578
X-31.665Y-24.148
X-31.215Y-26.928
X-30.596Y26.264
X-29.83Y-5.58
X-29.599Y-12.656
X-28.346Y27.947
X-28.3Y-27.824
X-27.69Y-1.58
X-26.67Y-26.797
X-26.234Y21.141
X-20.04Y-5.52
X-14.92Y1.88
X-11.26Y3.2
X-10.179Y-38.5
X-10.16Y44.958
X-10.16Y-45.085
X-10.09Y38.411
X-9.525Y36.322
X-7.62Y-45.085
X-7.595Y44.958
X-7.592Y40.51
X-7.569Y-39.624
X-5.461Y-33.274
X-5.118Y39.51
X-5.105Y44.958
X-5.08Y-45.085
X-5.016Y-40.5
X-2.54Y45.085
X-2.54Y-41.275
X-2.54Y41.275
X-2.54Y-45.085
X0.0Y44.958
X0.0Y-45.085
X2.54Y47.625
X2.54Y-47.625
X5.053Y42.01
X5.08Y44.958
X5.08Y-45.085
X5.119Y-42.0
X5.433Y33.214
X7.62Y44.958
X7.62Y-45.085
X7.631Y42.81
X7.748Y-42.8
X9.652Y-36.576
X10.795Y2.54
X10.795Y-5.715
X26.234Y-21.141
X26.797Y26.797
X31.667Y12.2
X33.23Y27.968
X33.357Y-27.777
X33.852Y25.291
X33.953Y-25.144
X35.222Y-28.841
X35.273Y28.999
X36.195Y-10.033
X36.492Y-26.641
X36.543Y26.799
X36.925Y-15.394
X36.969Y18.264
X37.085Y-18.224
X37.621Y15.763
X38.189Y13.103
X38.407Y-10.23
X38.47Y10.292
X38.866Y-13.647
X39.083Y22.4
X39.116Y-22.352
X39.974Y26.012
X39.974Y-26.012
X40.385Y20.257
X40.385Y-20.13
X41.487Y-18.058
X41.623Y18.001
X42.767Y-15.893
X42.893Y15.801
X44.112Y-13.443
X44.163Y13.601
T2
X-51.435Y2.56
X-51.435Y0.02
X-51.435Y-2.52
X-48.895Y2.56
X-48.895Y0.02
X-48.895Y-2.52
X-10.0Y17.0
X-10.0Y-17.0
X20.0Y0.0
T3
X0.0Y6.0
X0.0Y-6.0
T0
M30
