%TF.GenerationSoftware,KiCad,Pcbnew,(6.0.2)*%
%TF.CreationDate,2022-06-07T19:59:40+02:00*%
%TF.ProjectId,cup_sense,6375705f-7365-46e7-9365-2e6b69636164,rev?*%
%TF.SameCoordinates,Original*%
%TF.FileFunction,Profile,NP*%
%FSLAX46Y46*%
G04 Gerber Fmt 4.6, Leading zero omitted, Abs format (unit mm)*
G04 Created by KiCad (PCBNEW (6.0.2)) date 2022-06-07 19:59:40*
%MOMM*%
%LPD*%
G01*
G04 APERTURE LIST*
%TA.AperFunction,Profile*%
%ADD10C,0.100000*%
%TD*%
G04 APERTURE END LIST*
D10*
X54844644Y-4999102D02*
G75*
G03*
X54844644Y5000898I-8660254J5000000D01*
G01*
X-48220295Y13979999D02*
X-36220295Y34764608D01*
X31751671Y44999101D02*
X37298157Y35392304D01*
X-12003112Y48749101D02*
X-12003112Y49996404D01*
X-12003112Y48749101D02*
X11996888Y48749101D01*
X31751671Y44999101D02*
G75*
G03*
X23089861Y49996405I-8658698J-5002698D01*
G01*
X49298157Y14607695D02*
X48217960Y13984042D01*
X48217961Y-13982246D02*
X49298157Y-14605898D01*
X-54849312Y4998202D02*
X-49302826Y14604999D01*
X-48220295Y13979999D02*
X-49302826Y14604999D01*
X-23096085Y49996405D02*
X-12003112Y49996404D01*
X36217960Y34768652D02*
X37298157Y35392304D01*
X49298157Y14607695D02*
X54844644Y5000898D01*
X-23096085Y49996405D02*
G75*
G03*
X-31756339Y44996405I0J-10000000D01*
G01*
X11996888Y49996405D02*
X11996888Y48749101D01*
X-31753227Y-45000000D02*
X-37299712Y-35393203D01*
X54844644Y-4999102D02*
X49298157Y-14605898D01*
X-12000000Y-50000000D02*
X-12000000Y-48750000D01*
X23092973Y-50000000D02*
G75*
G03*
X31751671Y-44997304I-6230J10005396D01*
G01*
X11996888Y49996405D02*
X23089861Y49996405D01*
X48217961Y-13982246D02*
X36217961Y-34766856D01*
X-36219516Y-34769552D02*
X-48219516Y-13984942D01*
X36217960Y34768652D02*
X48217960Y13984042D01*
X-37302826Y35389608D02*
X-36220295Y34764608D01*
X37298158Y-35390508D02*
X36217961Y-34766856D01*
X-49299713Y-14608594D02*
X-54846200Y-5001798D01*
X12000000Y-48750000D02*
X12000000Y-50000000D01*
X37298158Y-35390508D02*
X31751671Y-44997304D01*
X-31753227Y-45000000D02*
G75*
G03*
X-23092973Y-50000000I8660254J5000000D01*
G01*
X-37302826Y35389608D02*
X-31756339Y44996405D01*
X-54849312Y4998202D02*
G75*
G03*
X-54846200Y-5001798I8661810J-4997305D01*
G01*
X23092973Y-50000000D02*
X12000000Y-50000000D01*
X12000000Y-48750000D02*
X-12000000Y-48750000D01*
X-12000000Y-50000000D02*
X-23092973Y-50000000D01*
X-49299713Y-14608594D02*
X-48219516Y-13984942D01*
X-36219516Y-34769552D02*
X-37299712Y-35393203D01*
M02*
