%TF.GenerationSoftware,KiCad,Pcbnew,(6.0.2)*%
%TF.CreationDate,2022-06-07T19:59:40+02:00*%
%TF.ProjectId,cup_sense,6375705f-7365-46e7-9365-2e6b69636164,rev?*%
%TF.SameCoordinates,Original*%
%TF.FileFunction,Soldermask,Bot*%
%TF.FilePolarity,Negative*%
%FSLAX46Y46*%
G04 Gerber Fmt 4.6, Leading zero omitted, Abs format (unit mm)*
G04 Created by KiCad (PCBNEW (6.0.2)) date 2022-06-07 19:59:40*
%MOMM*%
%LPD*%
G01*
G04 APERTURE LIST*
G04 Aperture macros list*
%AMRoundRect*
0 Rectangle with rounded corners*
0 $1 Rounding radius*
0 $2 $3 $4 $5 $6 $7 $8 $9 X,Y pos of 4 corners*
0 Add a 4 corners polygon primitive as box body*
4,1,4,$2,$3,$4,$5,$6,$7,$8,$9,$2,$3,0*
0 Add four circle primitives for the rounded corners*
1,1,$1+$1,$2,$3*
1,1,$1+$1,$4,$5*
1,1,$1+$1,$6,$7*
1,1,$1+$1,$8,$9*
0 Add four rect primitives between the rounded corners*
20,1,$1+$1,$2,$3,$4,$5,0*
20,1,$1+$1,$4,$5,$6,$7,0*
20,1,$1+$1,$6,$7,$8,$9,0*
20,1,$1+$1,$8,$9,$2,$3,0*%
G04 Aperture macros list end*
%ADD10R,4.000000X3.000000*%
%ADD11C,6.000000*%
%ADD12C,2.000000*%
%ADD13R,1.700000X1.700000*%
%ADD14O,1.700000X1.700000*%
%ADD15RoundRect,0.200000X0.275000X-0.200000X0.275000X0.200000X-0.275000X0.200000X-0.275000X-0.200000X0*%
%ADD16RoundRect,0.200000X0.200000X0.275000X-0.200000X0.275000X-0.200000X-0.275000X0.200000X-0.275000X0*%
%ADD17RoundRect,0.250000X0.250000X0.475000X-0.250000X0.475000X-0.250000X-0.475000X0.250000X-0.475000X0*%
%ADD18R,0.700000X0.450000*%
%ADD19RoundRect,0.150000X0.875000X0.150000X-0.875000X0.150000X-0.875000X-0.150000X0.875000X-0.150000X0*%
%ADD20RoundRect,0.200000X-0.200000X-0.275000X0.200000X-0.275000X0.200000X0.275000X-0.200000X0.275000X0*%
%ADD21R,0.450000X0.700000*%
%ADD22RoundRect,0.225000X0.250000X-0.225000X0.250000X0.225000X-0.250000X0.225000X-0.250000X-0.225000X0*%
G04 APERTURE END LIST*
D10*
%TO.C,D4*%
X-8000000Y6000000D03*
X8000000Y6000000D03*
D11*
X0Y6000000D03*
%TD*%
D12*
%TO.C,T1*%
X-10000000Y-17000000D03*
X20000000Y0D03*
X-10000000Y17000000D03*
%TD*%
D13*
%TO.C,J7*%
X-51435000Y2560000D03*
D14*
X-48895000Y2560000D03*
X-51435000Y20000D03*
X-48895000Y20000D03*
X-51435000Y-2520000D03*
X-48895000Y-2520000D03*
%TD*%
D10*
%TO.C,Q1*%
X8000000Y-6000000D03*
X-8000000Y-6000000D03*
D11*
X0Y-6000000D03*
%TD*%
D15*
%TO.C,R3*%
X-45720000Y-2476000D03*
X-45720000Y-826000D03*
%TD*%
D16*
%TO.C,R4*%
X-32830000Y-8255000D03*
X-34480000Y-8255000D03*
%TD*%
%TO.C,R1*%
X9715000Y2540000D03*
X8065000Y2540000D03*
%TD*%
D17*
%TO.C,C2*%
X-35565000Y8255000D03*
X-37465000Y8255000D03*
%TD*%
D18*
%TO.C,Q2*%
X-9890000Y1890000D03*
X-9890000Y3190000D03*
X-7890000Y2540000D03*
%TD*%
D19*
%TO.C,U1*%
X-32815000Y5845000D03*
X-32815000Y4575000D03*
X-32815000Y3305000D03*
X-32815000Y2035000D03*
X-32815000Y765000D03*
X-32815000Y-505000D03*
X-32815000Y-1775000D03*
X-32815000Y-3045000D03*
X-32815000Y-4315000D03*
X-32815000Y-5585000D03*
X-42115000Y-5585000D03*
X-42115000Y-4315000D03*
X-42115000Y-3045000D03*
X-42115000Y-1775000D03*
X-42115000Y-505000D03*
X-42115000Y765000D03*
X-42115000Y2035000D03*
X-42115000Y3305000D03*
X-42115000Y4575000D03*
X-42115000Y5845000D03*
%TD*%
D20*
%TO.C,R2*%
X-13525001Y1905000D03*
X-11875001Y1905000D03*
%TD*%
D21*
%TO.C,Q3*%
X-47005000Y-4715000D03*
X-45705000Y-4715000D03*
X-46355000Y-6715000D03*
%TD*%
D22*
%TO.C,C1*%
X-32385000Y8750000D03*
X-32385000Y10300000D03*
%TD*%
M02*
