M48
; DRILL file {KiCad (6.0.2)} date Tue Jun  7 19:59:33 2022
; FORMAT={-:-/ absolute / inch / decimal}
; #@! TF.CreationDate,2022-06-07T19:59:33+02:00
; #@! TF.GenerationSoftware,Kicad,Pcbnew,(6.0.2)
; #@! TF.FileFunction,Plated,1,2,PTH
FMAT,2
INCH
; #@! TA.AperFunction,Plated,PTH,ViaDrill
T1C0.0157
; #@! TA.AperFunction,Plated,PTH,ComponentDrill
T2C0.0394
%
G90
G05
T1
X-1.232Y-0.936
X-0.98Y-0.86
X-0.972Y-0.788
X-0.886Y-0.738
X-0.56Y-0.76
X-0.48Y-0.72
X-0.3Y-0.68
X-0.24Y-0.56
X-0.08Y-0.28
X-0.08Y-0.36
X-0.08Y-0.44
X0.0Y-0.28
X0.0Y-0.36
X0.0Y-0.44
X0.08Y-0.28
X0.08Y-0.36
X0.08Y-0.44
X0.23Y-0.59
T2
X-0.251Y-0.95
X-0.151Y-0.95
X-0.051Y-0.95
X0.049Y-0.95
X0.149Y-0.95
X0.249Y-0.95
T0
M30
