%TF.GenerationSoftware,KiCad,Pcbnew,(6.0.2)*%
%TF.CreationDate,2022-06-07T19:59:31+02:00*%
%TF.ProjectId,cup_connect,6375705f-636f-46e6-9e65-63742e6b6963,rev?*%
%TF.SameCoordinates,Original*%
%TF.FileFunction,Legend,Bot*%
%TF.FilePolarity,Positive*%
%FSLAX46Y46*%
G04 Gerber Fmt 4.6, Leading zero omitted, Abs format (unit mm)*
G04 Created by KiCad (PCBNEW (6.0.2)) date 2022-06-07 19:59:31*
%MOMM*%
%LPD*%
G01*
G04 APERTURE LIST*
%ADD10C,0.300000*%
%ADD11C,0.150000*%
%ADD12C,0.120000*%
G04 APERTURE END LIST*
D10*
X34154285Y-26697714D02*
X34225714Y-26769142D01*
X34440000Y-26840571D01*
X34582857Y-26840571D01*
X34797142Y-26769142D01*
X34940000Y-26626285D01*
X35011428Y-26483428D01*
X35082857Y-26197714D01*
X35082857Y-25983428D01*
X35011428Y-25697714D01*
X34940000Y-25554857D01*
X34797142Y-25412000D01*
X34582857Y-25340571D01*
X34440000Y-25340571D01*
X34225714Y-25412000D01*
X34154285Y-25483428D01*
X33297142Y-26840571D02*
X33440000Y-26769142D01*
X33511428Y-26697714D01*
X33582857Y-26554857D01*
X33582857Y-26126285D01*
X33511428Y-25983428D01*
X33440000Y-25912000D01*
X33297142Y-25840571D01*
X33082857Y-25840571D01*
X32940000Y-25912000D01*
X32868571Y-25983428D01*
X32797142Y-26126285D01*
X32797142Y-26554857D01*
X32868571Y-26697714D01*
X32940000Y-26769142D01*
X33082857Y-26840571D01*
X33297142Y-26840571D01*
X32154285Y-25840571D02*
X32154285Y-26840571D01*
X32154285Y-25983428D02*
X32082857Y-25912000D01*
X31940000Y-25840571D01*
X31725714Y-25840571D01*
X31582857Y-25912000D01*
X31511428Y-26054857D01*
X31511428Y-26840571D01*
X30797142Y-25840571D02*
X30797142Y-26840571D01*
X30797142Y-25983428D02*
X30725714Y-25912000D01*
X30582857Y-25840571D01*
X30368571Y-25840571D01*
X30225714Y-25912000D01*
X30154285Y-26054857D01*
X30154285Y-26840571D01*
X28868571Y-26769142D02*
X29011428Y-26840571D01*
X29297142Y-26840571D01*
X29440000Y-26769142D01*
X29511428Y-26626285D01*
X29511428Y-26054857D01*
X29440000Y-25912000D01*
X29297142Y-25840571D01*
X29011428Y-25840571D01*
X28868571Y-25912000D01*
X28797142Y-26054857D01*
X28797142Y-26197714D01*
X29511428Y-26340571D01*
X27511428Y-26769142D02*
X27654285Y-26840571D01*
X27940000Y-26840571D01*
X28082857Y-26769142D01*
X28154285Y-26697714D01*
X28225714Y-26554857D01*
X28225714Y-26126285D01*
X28154285Y-25983428D01*
X28082857Y-25912000D01*
X27940000Y-25840571D01*
X27654285Y-25840571D01*
X27511428Y-25912000D01*
X27082857Y-25840571D02*
X26511428Y-25840571D01*
X26868571Y-25340571D02*
X26868571Y-26626285D01*
X26797142Y-26769142D01*
X26654285Y-26840571D01*
X26511428Y-26840571D01*
X25011428Y-25840571D02*
X24654285Y-26840571D01*
X24297142Y-25840571D01*
X22940000Y-26840571D02*
X23797142Y-26840571D01*
X23368571Y-26840571D02*
X23368571Y-25340571D01*
X23511428Y-25554857D01*
X23654285Y-25697714D01*
X23797142Y-25769142D01*
X22297142Y-26697714D02*
X22225714Y-26769142D01*
X22297142Y-26840571D01*
X22368571Y-26769142D01*
X22297142Y-26697714D01*
X22297142Y-26840571D01*
X21297142Y-25340571D02*
X21154285Y-25340571D01*
X21011428Y-25412000D01*
X20940000Y-25483428D01*
X20868571Y-25626285D01*
X20797142Y-25912000D01*
X20797142Y-26269142D01*
X20868571Y-26554857D01*
X20940000Y-26697714D01*
X21011428Y-26769142D01*
X21154285Y-26840571D01*
X21297142Y-26840571D01*
X21440000Y-26769142D01*
X21511428Y-26697714D01*
X21582857Y-26554857D01*
X21654285Y-26269142D01*
X21654285Y-25912000D01*
X21582857Y-25626285D01*
X21511428Y-25483428D01*
X21440000Y-25412000D01*
X21297142Y-25340571D01*
D11*
%TO.C,U1*%
X3952380Y-10160095D02*
X4761904Y-10160095D01*
X4857142Y-10207714D01*
X4904761Y-10255333D01*
X4952380Y-10350571D01*
X4952380Y-10541047D01*
X4904761Y-10636285D01*
X4857142Y-10683904D01*
X4761904Y-10731523D01*
X3952380Y-10731523D01*
X4952380Y-11731523D02*
X4952380Y-11160095D01*
X4952380Y-11445809D02*
X3952380Y-11445809D01*
X4095238Y-11350571D01*
X4190476Y-11255333D01*
X4238095Y-11160095D01*
D12*
X3450000Y-11892000D02*
X3450000Y-13392000D01*
X-3450000Y-13392000D02*
X-3180000Y-13392000D01*
X3450000Y-13392000D02*
X3180000Y-13392000D01*
X3180000Y-13392000D02*
X3180000Y-16222000D01*
X-3450000Y-11892000D02*
X-3450000Y-13392000D01*
X-3180000Y-13392000D02*
X-3180000Y-14492000D01*
%TD*%
M02*
