%TF.GenerationSoftware,KiCad,Pcbnew,(6.0.2)*%
%TF.CreationDate,2022-06-07T19:59:30+02:00*%
%TF.ProjectId,cup_connect,6375705f-636f-46e6-9e65-63742e6b6963,rev?*%
%TF.SameCoordinates,Original*%
%TF.FileFunction,Copper,L1,Top*%
%TF.FilePolarity,Positive*%
%FSLAX46Y46*%
G04 Gerber Fmt 4.6, Leading zero omitted, Abs format (unit mm)*
G04 Created by KiCad (PCBNEW (6.0.2)) date 2022-06-07 19:59:30*
%MOMM*%
%LPD*%
G01*
G04 APERTURE LIST*
G04 Aperture macros list*
%AMRoundRect*
0 Rectangle with rounded corners*
0 $1 Rounding radius*
0 $2 $3 $4 $5 $6 $7 $8 $9 X,Y pos of 4 corners*
0 Add a 4 corners polygon primitive as box body*
4,1,4,$2,$3,$4,$5,$6,$7,$8,$9,$2,$3,0*
0 Add four circle primitives for the rounded corners*
1,1,$1+$1,$2,$3*
1,1,$1+$1,$4,$5*
1,1,$1+$1,$6,$7*
1,1,$1+$1,$8,$9*
0 Add four rect primitives between the rounded corners*
20,1,$1+$1,$2,$3,$4,$5,0*
20,1,$1+$1,$4,$5,$6,$7,0*
20,1,$1+$1,$6,$7,$8,$9,0*
20,1,$1+$1,$8,$9,$2,$3,0*%
%AMRotRect*
0 Rectangle, with rotation*
0 The origin of the aperture is its center*
0 $1 length*
0 $2 width*
0 $3 Rotation angle, in degrees counterclockwise*
0 Add horizontal line*
21,1,$1,$2,0,0,$3*%
G04 Aperture macros list end*
%TA.AperFunction,NonConductor*%
%ADD10C,0.200000*%
%TD*%
%TA.AperFunction,SMDPad,CuDef*%
%ADD11RoundRect,0.250000X0.475000X-0.250000X0.475000X0.250000X-0.475000X0.250000X-0.475000X-0.250000X0*%
%TD*%
%TA.AperFunction,ComponentPad*%
%ADD12R,1.700000X1.700000*%
%TD*%
%TA.AperFunction,ComponentPad*%
%ADD13O,1.700000X1.700000*%
%TD*%
%TA.AperFunction,SMDPad,CuDef*%
%ADD14RoundRect,0.200000X0.275000X-0.200000X0.275000X0.200000X-0.275000X0.200000X-0.275000X-0.200000X0*%
%TD*%
%TA.AperFunction,SMDPad,CuDef*%
%ADD15RotRect,3.750000X1.700000X120.000000*%
%TD*%
%TA.AperFunction,ViaPad*%
%ADD16C,0.800000*%
%TD*%
%TA.AperFunction,Conductor*%
%ADD17C,0.250000*%
%TD*%
G04 APERTURE END LIST*
D10*
X100000000Y0D02*
G75*
G03*
X100000000Y0I-100000000J0D01*
G01*
D11*
%TO.P,C2,1*%
%TO.N,+3V3*%
X-6096000Y-13208000D03*
%TO.P,C2,2*%
%TO.N,GND*%
X-6096000Y-11308000D03*
%TD*%
%TO.P,C1,1*%
%TO.N,+5V*%
X5842000Y-13970000D03*
%TO.P,C1,2*%
%TO.N,GND*%
X5842000Y-12070000D03*
%TD*%
D12*
%TO.P,J2,1,Pin_1*%
%TO.N,touch*%
X6325000Y-24130000D03*
D13*
%TO.P,J2,2,Pin_2*%
%TO.N,I2C_SDA*%
X3785000Y-24130000D03*
%TO.P,J2,3,Pin_3*%
%TO.N,I2C_SCL*%
X1245000Y-24130000D03*
%TO.P,J2,4,Pin_4*%
%TO.N,LED_IN*%
X-1295000Y-24130000D03*
%TO.P,J2,5,Pin_5*%
%TO.N,GND*%
X-3835000Y-24130000D03*
%TO.P,J2,6,Pin_6*%
%TO.N,+5V*%
X-6375000Y-24130000D03*
%TD*%
D14*
%TO.P,R1,1*%
%TO.N,touch*%
X-9652000Y-17081000D03*
%TO.P,R1,2*%
%TO.N,+3V3*%
X-9652000Y-15431000D03*
%TD*%
D15*
%TO.P,J1,1,Pin_1*%
%TO.N,+5V*%
X-32029651Y-22543017D03*
%TO.P,J1,2,Pin_2*%
%TO.N,unconnected-(J1-Pad2)*%
X-29805947Y-21314586D03*
%TO.P,J1,3,Pin_3*%
%TO.N,LED_IN*%
X-27606242Y-20044586D03*
%TO.P,J1,4,Pin_4*%
%TO.N,GND*%
X-25406538Y-18774586D03*
%TO.P,J1,5,Pin_5*%
X-23206833Y-17504586D03*
%TO.P,J1,6,Pin_6*%
%TO.N,+3V3*%
X-21007128Y-16234586D03*
%TO.P,J1,7,Pin_7*%
%TO.N,I2C_SCL*%
X-18807424Y-14964586D03*
%TO.P,J1,8,Pin_8*%
%TO.N,I2C_SDA*%
X-16607719Y-13694586D03*
%TO.P,J1,9,Pin_9*%
%TO.N,touch*%
X-14432015Y-12383017D03*
%TD*%
D16*
%TO.N,+3V3*%
X-6096000Y-14224000D03*
%TO.N,+5V*%
X5842000Y-14986000D03*
%TO.N,GND*%
X2032000Y-7112000D03*
X0Y-11176000D03*
X-2032000Y-9144000D03*
X0Y-9144000D03*
X-24688800Y-20015200D03*
X-22504400Y-18745200D03*
X0Y-7112000D03*
X2032000Y-11176000D03*
X-2032000Y-7112000D03*
X2032000Y-9144000D03*
X-2032000Y-11176000D03*
%TO.N,+5V*%
X-31292800Y-23774400D03*
%TO.N,LED_IN*%
X-24892000Y-21844000D03*
%TO.N,touch*%
X-7620000Y-17272000D03*
%TO.N,I2C_SDA*%
X-12192000Y-18288000D03*
%TO.N,I2C_SCL*%
X-14224000Y-19304000D03*
%TD*%
D17*
%TO.N,+3V3*%
X-6096000Y-13208000D02*
X-6096000Y-14224000D01*
%TO.N,+5V*%
X5842000Y-14986000D02*
X5842000Y-13970000D01*
%TO.N,LED_IN*%
X-25806828Y-21844000D02*
X-24892000Y-21844000D01*
X-27606242Y-20044586D02*
X-25806828Y-21844000D01*
%TO.N,touch*%
X-9652000Y-17081000D02*
X-7811000Y-17081000D01*
X-7811000Y-17081000D02*
X-7620000Y-17272000D01*
X-10351000Y-17081000D02*
X-14432015Y-12999985D01*
X-14432015Y-12999985D02*
X-14432015Y-12383017D01*
X-9652000Y-17081000D02*
X-10351000Y-17081000D01*
%TO.N,I2C_SDA*%
X-12192000Y-18110305D02*
X-12192000Y-18288000D01*
X-16607719Y-13694586D02*
X-12192000Y-18110305D01*
%TO.N,I2C_SCL*%
X-14468010Y-19304000D02*
X-14224000Y-19304000D01*
X-18807424Y-14964586D02*
X-14468010Y-19304000D01*
%TD*%
%TA.AperFunction,Conductor*%
%TO.N,GND*%
G36*
X63000Y-329667D02*
G01*
X37856808Y-22149931D01*
X37861782Y-22152803D01*
X37910775Y-22204185D01*
X37924782Y-22261971D01*
X37922348Y-28470049D01*
X37902319Y-28538162D01*
X37848645Y-28584634D01*
X37796348Y-28596000D01*
X14751Y-28596000D01*
X-37796244Y-28595999D01*
X-37864365Y-28575997D01*
X-37910858Y-28522341D01*
X-37922244Y-28469950D01*
X-37921719Y-27131637D01*
X-37919809Y-22258999D01*
X-37899780Y-22190888D01*
X-37856811Y-22149933D01*
X-36979422Y-21643372D01*
X-36979420Y-21643371D01*
X-36566752Y-21405117D01*
X-36497758Y-21388379D01*
X-36430666Y-21411599D01*
X-36394636Y-21451232D01*
X-35273808Y-23392409D01*
X-33528000Y-26416000D01*
X-29494399Y-24100964D01*
X-7483852Y-24100964D01*
X-7470576Y-24303522D01*
X-7469155Y-24309118D01*
X-7469154Y-24309123D01*
X-7448881Y-24388945D01*
X-7420608Y-24500269D01*
X-7418191Y-24505512D01*
X-7380990Y-24586208D01*
X-7335623Y-24684616D01*
X-7332290Y-24689332D01*
X-7236585Y-24824752D01*
X-7218467Y-24850389D01*
X-7073062Y-24992035D01*
X-6904280Y-25104812D01*
X-6898977Y-25107090D01*
X-6898974Y-25107092D01*
X-6767717Y-25163484D01*
X-6717772Y-25184942D01*
X-6644756Y-25201464D01*
X-6525421Y-25228467D01*
X-6525416Y-25228468D01*
X-6519784Y-25229742D01*
X-6514013Y-25229969D01*
X-6514011Y-25229969D01*
X-6454244Y-25232317D01*
X-6316947Y-25237712D01*
X-6209652Y-25222155D01*
X-6121769Y-25209413D01*
X-6121764Y-25209412D01*
X-6116055Y-25208584D01*
X-6110591Y-25206729D01*
X-6110586Y-25206728D01*
X-5929307Y-25145192D01*
X-5929302Y-25145190D01*
X-5923835Y-25143334D01*
X-5878067Y-25117703D01*
X-5849317Y-25101602D01*
X-5746724Y-25044147D01*
X-5707031Y-25011135D01*
X-5595087Y-24918031D01*
X-5590655Y-24914345D01*
X-5460853Y-24758276D01*
X-5361666Y-24581165D01*
X-5359810Y-24575698D01*
X-5359808Y-24575693D01*
X-5298272Y-24394414D01*
X-5298271Y-24394409D01*
X-5296416Y-24388945D01*
X-5295588Y-24383236D01*
X-5295587Y-24383231D01*
X-5267821Y-24191727D01*
X-5267288Y-24188053D01*
X-5265768Y-24130000D01*
X-5268436Y-24100964D01*
X-2403852Y-24100964D01*
X-2390576Y-24303522D01*
X-2389155Y-24309118D01*
X-2389154Y-24309123D01*
X-2368881Y-24388945D01*
X-2340608Y-24500269D01*
X-2338191Y-24505512D01*
X-2300990Y-24586208D01*
X-2255623Y-24684616D01*
X-2252290Y-24689332D01*
X-2156585Y-24824752D01*
X-2138467Y-24850389D01*
X-1993062Y-24992035D01*
X-1824280Y-25104812D01*
X-1818977Y-25107090D01*
X-1818974Y-25107092D01*
X-1687717Y-25163484D01*
X-1637772Y-25184942D01*
X-1564756Y-25201464D01*
X-1445421Y-25228467D01*
X-1445416Y-25228468D01*
X-1439784Y-25229742D01*
X-1434013Y-25229969D01*
X-1434011Y-25229969D01*
X-1374244Y-25232317D01*
X-1236947Y-25237712D01*
X-1129652Y-25222155D01*
X-1041769Y-25209413D01*
X-1041764Y-25209412D01*
X-1036055Y-25208584D01*
X-1030591Y-25206729D01*
X-1030586Y-25206728D01*
X-849307Y-25145192D01*
X-849302Y-25145190D01*
X-843835Y-25143334D01*
X-798067Y-25117703D01*
X-769317Y-25101602D01*
X-666724Y-25044147D01*
X-627031Y-25011135D01*
X-515087Y-24918031D01*
X-510655Y-24914345D01*
X-380853Y-24758276D01*
X-281666Y-24581165D01*
X-279810Y-24575698D01*
X-279808Y-24575693D01*
X-218272Y-24394414D01*
X-218271Y-24394409D01*
X-216416Y-24388945D01*
X-215588Y-24383236D01*
X-215587Y-24383231D01*
X-187821Y-24191727D01*
X-187288Y-24188053D01*
X-185768Y-24130000D01*
X-188436Y-24100964D01*
X136148Y-24100964D01*
X149424Y-24303522D01*
X150845Y-24309118D01*
X150846Y-24309123D01*
X171119Y-24388945D01*
X199392Y-24500269D01*
X201809Y-24505512D01*
X239010Y-24586208D01*
X284377Y-24684616D01*
X287710Y-24689332D01*
X383415Y-24824752D01*
X401533Y-24850389D01*
X546938Y-24992035D01*
X715720Y-25104812D01*
X721023Y-25107090D01*
X721026Y-25107092D01*
X852283Y-25163484D01*
X902228Y-25184942D01*
X975244Y-25201464D01*
X1094579Y-25228467D01*
X1094584Y-25228468D01*
X1100216Y-25229742D01*
X1105987Y-25229969D01*
X1105989Y-25229969D01*
X1165756Y-25232317D01*
X1303053Y-25237712D01*
X1410348Y-25222155D01*
X1498231Y-25209413D01*
X1498236Y-25209412D01*
X1503945Y-25208584D01*
X1509409Y-25206729D01*
X1509414Y-25206728D01*
X1690693Y-25145192D01*
X1690698Y-25145190D01*
X1696165Y-25143334D01*
X1741933Y-25117703D01*
X1770683Y-25101602D01*
X1873276Y-25044147D01*
X1912969Y-25011135D01*
X2024913Y-24918031D01*
X2029345Y-24914345D01*
X2159147Y-24758276D01*
X2258334Y-24581165D01*
X2260190Y-24575698D01*
X2260192Y-24575693D01*
X2321728Y-24394414D01*
X2321729Y-24394409D01*
X2323584Y-24388945D01*
X2324412Y-24383236D01*
X2324413Y-24383231D01*
X2352179Y-24191727D01*
X2352712Y-24188053D01*
X2354232Y-24130000D01*
X2351564Y-24100964D01*
X2676148Y-24100964D01*
X2689424Y-24303522D01*
X2690845Y-24309118D01*
X2690846Y-24309123D01*
X2711119Y-24388945D01*
X2739392Y-24500269D01*
X2741809Y-24505512D01*
X2779010Y-24586208D01*
X2824377Y-24684616D01*
X2827710Y-24689332D01*
X2923415Y-24824752D01*
X2941533Y-24850389D01*
X3086938Y-24992035D01*
X3255720Y-25104812D01*
X3261023Y-25107090D01*
X3261026Y-25107092D01*
X3392283Y-25163484D01*
X3442228Y-25184942D01*
X3515244Y-25201464D01*
X3634579Y-25228467D01*
X3634584Y-25228468D01*
X3640216Y-25229742D01*
X3645987Y-25229969D01*
X3645989Y-25229969D01*
X3705756Y-25232317D01*
X3843053Y-25237712D01*
X3950348Y-25222155D01*
X4038231Y-25209413D01*
X4038236Y-25209412D01*
X4043945Y-25208584D01*
X4049409Y-25206729D01*
X4049414Y-25206728D01*
X4230693Y-25145192D01*
X4230698Y-25145190D01*
X4236165Y-25143334D01*
X4281933Y-25117703D01*
X4310683Y-25101602D01*
X4413276Y-25044147D01*
X4452969Y-25011135D01*
X4564913Y-24918031D01*
X4569345Y-24914345D01*
X4699147Y-24758276D01*
X4798334Y-24581165D01*
X4800190Y-24575698D01*
X4800192Y-24575693D01*
X4861728Y-24394414D01*
X4861729Y-24394409D01*
X4863584Y-24388945D01*
X4864412Y-24383236D01*
X4864413Y-24383231D01*
X4892179Y-24191727D01*
X4892712Y-24188053D01*
X4894232Y-24130000D01*
X4882797Y-24005551D01*
X4876187Y-23933613D01*
X4876186Y-23933610D01*
X4875658Y-23927859D01*
X4874090Y-23922299D01*
X4822125Y-23738046D01*
X4822124Y-23738044D01*
X4820557Y-23732487D01*
X4809978Y-23711033D01*
X4733331Y-23555609D01*
X4730776Y-23550428D01*
X4609320Y-23387779D01*
X4465609Y-23254933D01*
X5220500Y-23254933D01*
X5220501Y-25005066D01*
X5235266Y-25079301D01*
X5242161Y-25089620D01*
X5242162Y-25089622D01*
X5282516Y-25150015D01*
X5291516Y-25163484D01*
X5375699Y-25219734D01*
X5449933Y-25234500D01*
X6324858Y-25234500D01*
X7200066Y-25234499D01*
X7235818Y-25227388D01*
X7262126Y-25222156D01*
X7262128Y-25222155D01*
X7274301Y-25219734D01*
X7284621Y-25212839D01*
X7284622Y-25212838D01*
X7348168Y-25170377D01*
X7358484Y-25163484D01*
X7414734Y-25079301D01*
X7429500Y-25005067D01*
X7429499Y-23254934D01*
X7414734Y-23180699D01*
X7388654Y-23141667D01*
X7365377Y-23106832D01*
X7358484Y-23096516D01*
X7274301Y-23040266D01*
X7200067Y-23025500D01*
X6325142Y-23025500D01*
X5449934Y-23025501D01*
X5414182Y-23032612D01*
X5387874Y-23037844D01*
X5387872Y-23037845D01*
X5375699Y-23040266D01*
X5365379Y-23047161D01*
X5365378Y-23047162D01*
X5304985Y-23087516D01*
X5291516Y-23096516D01*
X5235266Y-23180699D01*
X5220500Y-23254933D01*
X4465609Y-23254933D01*
X4460258Y-23249987D01*
X4455375Y-23246906D01*
X4455371Y-23246903D01*
X4293464Y-23144748D01*
X4288581Y-23141667D01*
X4100039Y-23066446D01*
X4094379Y-23065320D01*
X4094375Y-23065319D01*
X3906613Y-23027971D01*
X3906610Y-23027971D01*
X3900946Y-23026844D01*
X3895171Y-23026768D01*
X3895167Y-23026768D01*
X3793793Y-23025441D01*
X3697971Y-23024187D01*
X3692274Y-23025166D01*
X3692273Y-23025166D01*
X3604397Y-23040266D01*
X3497910Y-23058564D01*
X3307463Y-23128824D01*
X3133010Y-23232612D01*
X3128670Y-23236418D01*
X3128666Y-23236421D01*
X2984733Y-23362648D01*
X2980392Y-23366455D01*
X2854720Y-23525869D01*
X2852031Y-23530980D01*
X2852029Y-23530983D01*
X2804853Y-23620650D01*
X2760203Y-23705515D01*
X2700007Y-23899378D01*
X2676148Y-24100964D01*
X2351564Y-24100964D01*
X2342797Y-24005551D01*
X2336187Y-23933613D01*
X2336186Y-23933610D01*
X2335658Y-23927859D01*
X2334090Y-23922299D01*
X2282125Y-23738046D01*
X2282124Y-23738044D01*
X2280557Y-23732487D01*
X2269978Y-23711033D01*
X2193331Y-23555609D01*
X2190776Y-23550428D01*
X2069320Y-23387779D01*
X1920258Y-23249987D01*
X1915375Y-23246906D01*
X1915371Y-23246903D01*
X1753464Y-23144748D01*
X1748581Y-23141667D01*
X1560039Y-23066446D01*
X1554379Y-23065320D01*
X1554375Y-23065319D01*
X1366613Y-23027971D01*
X1366610Y-23027971D01*
X1360946Y-23026844D01*
X1355171Y-23026768D01*
X1355167Y-23026768D01*
X1253793Y-23025441D01*
X1157971Y-23024187D01*
X1152274Y-23025166D01*
X1152273Y-23025166D01*
X1064397Y-23040266D01*
X957910Y-23058564D01*
X767463Y-23128824D01*
X593010Y-23232612D01*
X588670Y-23236418D01*
X588666Y-23236421D01*
X444733Y-23362648D01*
X440392Y-23366455D01*
X314720Y-23525869D01*
X312031Y-23530980D01*
X312029Y-23530983D01*
X264853Y-23620650D01*
X220203Y-23705515D01*
X160007Y-23899378D01*
X136148Y-24100964D01*
X-188436Y-24100964D01*
X-197203Y-24005551D01*
X-203813Y-23933613D01*
X-203814Y-23933610D01*
X-204342Y-23927859D01*
X-205910Y-23922299D01*
X-257875Y-23738046D01*
X-257876Y-23738044D01*
X-259443Y-23732487D01*
X-270022Y-23711033D01*
X-346669Y-23555609D01*
X-349224Y-23550428D01*
X-470680Y-23387779D01*
X-619742Y-23249987D01*
X-624625Y-23246906D01*
X-624629Y-23246903D01*
X-786536Y-23144748D01*
X-791419Y-23141667D01*
X-979961Y-23066446D01*
X-985621Y-23065320D01*
X-985625Y-23065319D01*
X-1173387Y-23027971D01*
X-1173390Y-23027971D01*
X-1179054Y-23026844D01*
X-1184829Y-23026768D01*
X-1184833Y-23026768D01*
X-1286207Y-23025441D01*
X-1382029Y-23024187D01*
X-1387726Y-23025166D01*
X-1387727Y-23025166D01*
X-1475603Y-23040266D01*
X-1582090Y-23058564D01*
X-1772537Y-23128824D01*
X-1946990Y-23232612D01*
X-1951330Y-23236418D01*
X-1951334Y-23236421D01*
X-2095267Y-23362648D01*
X-2099608Y-23366455D01*
X-2225280Y-23525869D01*
X-2227969Y-23530980D01*
X-2227971Y-23530983D01*
X-2275147Y-23620650D01*
X-2319797Y-23705515D01*
X-2379993Y-23899378D01*
X-2403852Y-24100964D01*
X-5268436Y-24100964D01*
X-5277203Y-24005551D01*
X-5283813Y-23933613D01*
X-5283814Y-23933610D01*
X-5284342Y-23927859D01*
X-5285910Y-23922299D01*
X-5337875Y-23738046D01*
X-5337876Y-23738044D01*
X-5339443Y-23732487D01*
X-5350022Y-23711033D01*
X-5426669Y-23555609D01*
X-5429224Y-23550428D01*
X-5550680Y-23387779D01*
X-5699742Y-23249987D01*
X-5704625Y-23246906D01*
X-5704629Y-23246903D01*
X-5866536Y-23144748D01*
X-5871419Y-23141667D01*
X-6059961Y-23066446D01*
X-6065621Y-23065320D01*
X-6065625Y-23065319D01*
X-6253387Y-23027971D01*
X-6253390Y-23027971D01*
X-6259054Y-23026844D01*
X-6264829Y-23026768D01*
X-6264833Y-23026768D01*
X-6366207Y-23025441D01*
X-6462029Y-23024187D01*
X-6467726Y-23025166D01*
X-6467727Y-23025166D01*
X-6555603Y-23040266D01*
X-6662090Y-23058564D01*
X-6852537Y-23128824D01*
X-7026990Y-23232612D01*
X-7031330Y-23236418D01*
X-7031334Y-23236421D01*
X-7175267Y-23362648D01*
X-7179608Y-23366455D01*
X-7305280Y-23525869D01*
X-7307969Y-23530980D01*
X-7307971Y-23530983D01*
X-7355147Y-23620650D01*
X-7399797Y-23705515D01*
X-7459993Y-23899378D01*
X-7483852Y-24100964D01*
X-29494399Y-24100964D01*
X-26132150Y-22171242D01*
X-26063112Y-22154680D01*
X-26008731Y-22170106D01*
X-26000362Y-22174707D01*
X-25992181Y-22181156D01*
X-25983547Y-22184188D01*
X-25976094Y-22189514D01*
X-25926978Y-22204203D01*
X-25921336Y-22206036D01*
X-25880461Y-22220390D01*
X-25872977Y-22223018D01*
X-25867412Y-22223500D01*
X-25864704Y-22223500D01*
X-25862070Y-22223614D01*
X-25861972Y-22223643D01*
X-25861979Y-22223807D01*
X-25861275Y-22223851D01*
X-25855050Y-22225713D01*
X-25801193Y-22223597D01*
X-25796246Y-22223500D01*
X-25491859Y-22223500D01*
X-25423738Y-22243502D01*
X-25396478Y-22267169D01*
X-25395328Y-22268501D01*
X-25391092Y-22274805D01*
X-25273924Y-22381419D01*
X-25134707Y-22457008D01*
X-24981478Y-22497207D01*
X-24897523Y-22498526D01*
X-24830681Y-22499576D01*
X-24830678Y-22499576D01*
X-24823084Y-22499695D01*
X-24668668Y-22464329D01*
X-24598258Y-22428917D01*
X-24533928Y-22396563D01*
X-24533925Y-22396561D01*
X-24527145Y-22393151D01*
X-24521374Y-22388222D01*
X-24521371Y-22388220D01*
X-24412464Y-22295204D01*
X-24412464Y-22295203D01*
X-24406686Y-22290269D01*
X-24314245Y-22161624D01*
X-24255158Y-22014641D01*
X-24232838Y-21857807D01*
X-24232693Y-21844000D01*
X-24251724Y-21686733D01*
X-24307720Y-21538546D01*
X-24358610Y-21464500D01*
X-24393145Y-21414251D01*
X-24393146Y-21414249D01*
X-24397447Y-21407992D01*
X-24406788Y-21399669D01*
X-24471014Y-21342447D01*
X-24515725Y-21302611D01*
X-24523111Y-21298700D01*
X-24649012Y-21232039D01*
X-24649011Y-21232039D01*
X-24655726Y-21228484D01*
X-24809367Y-21189892D01*
X-24816966Y-21189852D01*
X-24816967Y-21189852D01*
X-24882819Y-21189507D01*
X-24967779Y-21189062D01*
X-24975159Y-21190834D01*
X-24975161Y-21190834D01*
X-25114437Y-21224271D01*
X-25114440Y-21224272D01*
X-25121816Y-21226043D01*
X-25262586Y-21298700D01*
X-25381961Y-21402838D01*
X-25386328Y-21409051D01*
X-25386333Y-21409057D01*
X-25387664Y-21410951D01*
X-25388987Y-21412005D01*
X-25391411Y-21414697D01*
X-25391860Y-21414293D01*
X-25443198Y-21455183D01*
X-25490750Y-21464500D01*
X-25537873Y-21464500D01*
X-25605994Y-21444498D01*
X-25648029Y-21399669D01*
X-25654298Y-21388379D01*
X-25665619Y-21367990D01*
X-25681193Y-21298580D01*
X-25680972Y-21295219D01*
X-25675354Y-21209514D01*
X-25679343Y-21197764D01*
X-25679343Y-21197761D01*
X-25697693Y-21143703D01*
X-25697695Y-21143699D01*
X-25699683Y-21137842D01*
X-27250867Y-18451115D01*
X-27596655Y-17852193D01*
X-27596656Y-17852191D01*
X-27599751Y-17846831D01*
X-27603830Y-17842179D01*
X-27607439Y-17837143D01*
X-27605356Y-17835650D01*
X-27630529Y-17781438D01*
X-27620871Y-17711101D01*
X-27568928Y-17653598D01*
X-25245199Y-16311992D01*
X-23258354Y-15164886D01*
X-23189361Y-15148149D01*
X-23122269Y-15171369D01*
X-23086753Y-15210120D01*
X-20828000Y-19050000D01*
X-17385828Y-17055226D01*
X-17316859Y-17038376D01*
X-17249730Y-17061488D01*
X-17233556Y-17075148D01*
X-14892332Y-19416372D01*
X-14863101Y-19462166D01*
X-14811447Y-19603319D01*
X-14723092Y-19734805D01*
X-14717473Y-19739918D01*
X-14717472Y-19739919D01*
X-14706097Y-19750269D01*
X-14605924Y-19841419D01*
X-14466707Y-19917008D01*
X-14313478Y-19957207D01*
X-14229523Y-19958526D01*
X-14162681Y-19959576D01*
X-14162678Y-19959576D01*
X-14155084Y-19959695D01*
X-14000668Y-19924329D01*
X-13930258Y-19888917D01*
X-13865928Y-19856563D01*
X-13865925Y-19856561D01*
X-13859145Y-19853151D01*
X-13853374Y-19848222D01*
X-13853371Y-19848220D01*
X-13744464Y-19755204D01*
X-13744464Y-19755203D01*
X-13738686Y-19750269D01*
X-13646245Y-19621624D01*
X-13587158Y-19474641D01*
X-13564838Y-19317807D01*
X-13564693Y-19304000D01*
X-13583724Y-19146733D01*
X-13639720Y-18998546D01*
X-13646252Y-18989042D01*
X-13725145Y-18874251D01*
X-13725146Y-18874249D01*
X-13729447Y-18867992D01*
X-13847725Y-18762611D01*
X-13987726Y-18688484D01*
X-14141367Y-18649892D01*
X-14148966Y-18649852D01*
X-14148967Y-18649852D01*
X-14214819Y-18649507D01*
X-14299779Y-18649062D01*
X-14307159Y-18650834D01*
X-14307161Y-18650834D01*
X-14446432Y-18684270D01*
X-14446434Y-18684271D01*
X-14453816Y-18686043D01*
X-14454081Y-18684941D01*
X-14517684Y-18689432D01*
X-14579885Y-18655431D01*
X-16506549Y-16728767D01*
X-16540575Y-16666455D01*
X-16535510Y-16595640D01*
X-16492963Y-16538804D01*
X-16480630Y-16530655D01*
X-15189130Y-15782218D01*
X-15120162Y-15765368D01*
X-15053033Y-15788480D01*
X-15036859Y-15802140D01*
X-12856349Y-17982650D01*
X-12822323Y-18044962D01*
X-12827397Y-18109228D01*
X-12825945Y-18109601D01*
X-12827834Y-18116958D01*
X-12830594Y-18124037D01*
X-12851271Y-18281096D01*
X-12833887Y-18438553D01*
X-12831277Y-18445684D01*
X-12831277Y-18445686D01*
X-12796525Y-18540650D01*
X-12779447Y-18587319D01*
X-12775211Y-18593622D01*
X-12775211Y-18593623D01*
X-12714190Y-18684431D01*
X-12691092Y-18718805D01*
X-12685473Y-18723918D01*
X-12685472Y-18723919D01*
X-12616795Y-18786410D01*
X-12573924Y-18825419D01*
X-12434707Y-18901008D01*
X-12281478Y-18941207D01*
X-12197523Y-18942526D01*
X-12130681Y-18943576D01*
X-12130678Y-18943576D01*
X-12123084Y-18943695D01*
X-11968668Y-18908329D01*
X-11878423Y-18862941D01*
X-11833928Y-18840563D01*
X-11833925Y-18840561D01*
X-11827145Y-18837151D01*
X-11821374Y-18832222D01*
X-11821371Y-18832220D01*
X-11712464Y-18739204D01*
X-11712464Y-18739203D01*
X-11706686Y-18734269D01*
X-11614245Y-18605624D01*
X-11555158Y-18458641D01*
X-11532838Y-18301807D01*
X-11532693Y-18288000D01*
X-11551724Y-18130733D01*
X-11607720Y-17982546D01*
X-11645500Y-17927576D01*
X-11693145Y-17858251D01*
X-11693146Y-17858249D01*
X-11697447Y-17851992D01*
X-11703239Y-17846831D01*
X-11810054Y-17751664D01*
X-11815725Y-17746611D01*
X-11955726Y-17672484D01*
X-11963089Y-17670635D01*
X-11963093Y-17670633D01*
X-12105442Y-17634878D01*
X-12163842Y-17601769D01*
X-14309852Y-15455759D01*
X-14343878Y-15393447D01*
X-14338813Y-15322632D01*
X-14296266Y-15265796D01*
X-14283934Y-15257647D01*
X-13371919Y-14729125D01*
X-13302950Y-14712275D01*
X-13235821Y-14735387D01*
X-13219647Y-14749047D01*
X-10657478Y-17311216D01*
X-10642336Y-17329964D01*
X-10641221Y-17331189D01*
X-10635571Y-17339940D01*
X-10627393Y-17346387D01*
X-10627391Y-17346389D01*
X-10609200Y-17360729D01*
X-10604759Y-17364675D01*
X-10604697Y-17364602D01*
X-10600733Y-17367961D01*
X-10597056Y-17371638D01*
X-10581308Y-17382892D01*
X-10576638Y-17386398D01*
X-10536353Y-17418156D01*
X-10527719Y-17421188D01*
X-10520266Y-17426514D01*
X-10471150Y-17441203D01*
X-10465508Y-17443036D01*
X-10424633Y-17457390D01*
X-10417149Y-17460018D01*
X-10411584Y-17460500D01*
X-10410188Y-17460500D01*
X-10401503Y-17462370D01*
X-10401974Y-17464558D01*
X-10346456Y-17486223D01*
X-10322126Y-17511082D01*
X-10298402Y-17543201D01*
X-10252010Y-17606010D01*
X-10142076Y-17687209D01*
X-10013127Y-17732493D01*
X-10005485Y-17733215D01*
X-10005482Y-17733216D01*
X-9990579Y-17734624D01*
X-9981315Y-17735500D01*
X-9652223Y-17735500D01*
X-9322686Y-17735499D01*
X-9319738Y-17735220D01*
X-9319729Y-17735220D01*
X-9298522Y-17733216D01*
X-9298520Y-17733216D01*
X-9290873Y-17732493D01*
X-9161924Y-17687209D01*
X-9051990Y-17606010D01*
X-9046398Y-17598439D01*
X-9046395Y-17598436D01*
X-8982287Y-17511641D01*
X-8925726Y-17468730D01*
X-8880936Y-17460500D01*
X-8336063Y-17460500D01*
X-8267942Y-17480502D01*
X-8221449Y-17534158D01*
X-8217737Y-17543201D01*
X-8210060Y-17564181D01*
X-8210057Y-17564187D01*
X-8207447Y-17571319D01*
X-8203211Y-17577622D01*
X-8203211Y-17577623D01*
X-8133332Y-17681613D01*
X-8119092Y-17702805D01*
X-8113473Y-17707918D01*
X-8113472Y-17707919D01*
X-8043003Y-17772040D01*
X-8001924Y-17809419D01*
X-7862707Y-17885008D01*
X-7709478Y-17925207D01*
X-7625523Y-17926526D01*
X-7558681Y-17927576D01*
X-7558678Y-17927576D01*
X-7551084Y-17927695D01*
X-7396668Y-17892329D01*
X-7306204Y-17846831D01*
X-7261928Y-17824563D01*
X-7261925Y-17824561D01*
X-7255145Y-17821151D01*
X-7249374Y-17816222D01*
X-7249371Y-17816220D01*
X-7140464Y-17723204D01*
X-7140464Y-17723203D01*
X-7134686Y-17718269D01*
X-7042245Y-17589624D01*
X-6983158Y-17442641D01*
X-6960838Y-17285807D01*
X-6960693Y-17272000D01*
X-6979724Y-17114733D01*
X-7035720Y-16966546D01*
X-7125447Y-16835992D01*
X-7243725Y-16730611D01*
X-7383726Y-16656484D01*
X-7537367Y-16617892D01*
X-7544966Y-16617852D01*
X-7544967Y-16617852D01*
X-7610819Y-16617507D01*
X-7695779Y-16617062D01*
X-7703159Y-16618834D01*
X-7703161Y-16618834D01*
X-7842437Y-16652271D01*
X-7842440Y-16652272D01*
X-7849816Y-16654043D01*
X-7856561Y-16657524D01*
X-7856560Y-16657524D01*
X-7914572Y-16687466D01*
X-7972362Y-16701500D01*
X-8880936Y-16701500D01*
X-8949057Y-16681498D01*
X-8982287Y-16650359D01*
X-9046395Y-16563564D01*
X-9046398Y-16563561D01*
X-9051990Y-16555990D01*
X-9161924Y-16474791D01*
X-9290873Y-16429507D01*
X-9298515Y-16428785D01*
X-9298518Y-16428784D01*
X-9313421Y-16427376D01*
X-9322685Y-16426500D01*
X-9651777Y-16426500D01*
X-9981314Y-16426501D01*
X-9984262Y-16426780D01*
X-9984271Y-16426780D01*
X-10005478Y-16428784D01*
X-10005480Y-16428784D01*
X-10013127Y-16429507D01*
X-10142076Y-16474791D01*
X-10149652Y-16480387D01*
X-10214973Y-16528634D01*
X-10281652Y-16553017D01*
X-10350927Y-16537480D01*
X-10378928Y-16516378D01*
X-11718621Y-15176685D01*
X-10381500Y-15176685D01*
X-10381499Y-15685314D01*
X-10378493Y-15717127D01*
X-10333209Y-15846076D01*
X-10252010Y-15956010D01*
X-10142076Y-16037209D01*
X-10013127Y-16082493D01*
X-10005485Y-16083215D01*
X-10005482Y-16083216D01*
X-9990579Y-16084624D01*
X-9981315Y-16085500D01*
X-9652223Y-16085500D01*
X-9322686Y-16085499D01*
X-9319738Y-16085220D01*
X-9319729Y-16085220D01*
X-9298522Y-16083216D01*
X-9298520Y-16083216D01*
X-9290873Y-16082493D01*
X-9161924Y-16037209D01*
X-9051990Y-15956010D01*
X-8970791Y-15846076D01*
X-8925507Y-15717127D01*
X-8922500Y-15685315D01*
X-8922501Y-15176686D01*
X-8923728Y-15163695D01*
X-8924784Y-15152522D01*
X-8924785Y-15152518D01*
X-8925507Y-15144873D01*
X-8970791Y-15015924D01*
X-9051990Y-14905990D01*
X-9161924Y-14824791D01*
X-9290873Y-14779507D01*
X-9298515Y-14778785D01*
X-9298518Y-14778784D01*
X-9313421Y-14777376D01*
X-9322685Y-14776500D01*
X-9651777Y-14776500D01*
X-9981314Y-14776501D01*
X-9984262Y-14776780D01*
X-9984271Y-14776780D01*
X-10005478Y-14778784D01*
X-10005480Y-14778784D01*
X-10013127Y-14779507D01*
X-10142076Y-14824791D01*
X-10252010Y-14905990D01*
X-10333209Y-15015924D01*
X-10378493Y-15144873D01*
X-10379215Y-15152515D01*
X-10379216Y-15152518D01*
X-10380272Y-15163695D01*
X-10381500Y-15176685D01*
X-11718621Y-15176685D01*
X-12492640Y-14402666D01*
X-12526666Y-14340354D01*
X-12521601Y-14269539D01*
X-12479054Y-14212703D01*
X-12466722Y-14204554D01*
X-11445673Y-13612846D01*
X-11445672Y-13612845D01*
X-11430000Y-13603763D01*
X-11436110Y-13592579D01*
X-11436111Y-13592577D01*
X-11483547Y-13505756D01*
X-7075500Y-13505756D01*
X-7068798Y-13567448D01*
X-7066026Y-13574841D01*
X-7066026Y-13574843D01*
X-7055184Y-13603763D01*
X-7018071Y-13702764D01*
X-7012691Y-13709943D01*
X-7012689Y-13709946D01*
X-6952928Y-13789684D01*
X-6931404Y-13818404D01*
X-6924224Y-13823785D01*
X-6822946Y-13899689D01*
X-6822943Y-13899691D01*
X-6815764Y-13905071D01*
X-6807361Y-13908221D01*
X-6799485Y-13912533D01*
X-6800569Y-13914513D01*
X-6753757Y-13949674D01*
X-6729055Y-14016235D01*
X-6732569Y-14054842D01*
X-6734594Y-14060037D01*
X-6755271Y-14217096D01*
X-6750055Y-14264339D01*
X-6739031Y-14364189D01*
X-6737887Y-14374553D01*
X-6735277Y-14381684D01*
X-6735277Y-14381686D01*
X-6707950Y-14456360D01*
X-6683447Y-14523319D01*
X-6679211Y-14529622D01*
X-6679211Y-14529623D01*
X-6645087Y-14580404D01*
X-6595092Y-14654805D01*
X-6589473Y-14659918D01*
X-6589472Y-14659919D01*
X-6513415Y-14729125D01*
X-6477924Y-14761419D01*
X-6338707Y-14837008D01*
X-6185478Y-14877207D01*
X-6101523Y-14878526D01*
X-6034681Y-14879576D01*
X-6034678Y-14879576D01*
X-6027084Y-14879695D01*
X-5872668Y-14844329D01*
X-5802258Y-14808917D01*
X-5737928Y-14776563D01*
X-5737925Y-14776561D01*
X-5731145Y-14773151D01*
X-5725374Y-14768222D01*
X-5725371Y-14768220D01*
X-5616464Y-14675204D01*
X-5616464Y-14675203D01*
X-5610686Y-14670269D01*
X-5518245Y-14541624D01*
X-5459158Y-14394641D01*
X-5441100Y-14267756D01*
X4862500Y-14267756D01*
X4869202Y-14329448D01*
X4871974Y-14336841D01*
X4871974Y-14336843D01*
X4886111Y-14374553D01*
X4919929Y-14464764D01*
X4925309Y-14471943D01*
X4925311Y-14471946D01*
X4963813Y-14523319D01*
X5006596Y-14580404D01*
X5013776Y-14585785D01*
X5115054Y-14661689D01*
X5115057Y-14661691D01*
X5122236Y-14667071D01*
X5130639Y-14670221D01*
X5138515Y-14674533D01*
X5137431Y-14676513D01*
X5184243Y-14711674D01*
X5208945Y-14778235D01*
X5205431Y-14816842D01*
X5203406Y-14822037D01*
X5200921Y-14840916D01*
X5185172Y-14960543D01*
X5182729Y-14979096D01*
X5200113Y-15136553D01*
X5202723Y-15143684D01*
X5202723Y-15143686D01*
X5247409Y-15265796D01*
X5254553Y-15285319D01*
X5342908Y-15416805D01*
X5348527Y-15421918D01*
X5348528Y-15421919D01*
X5359903Y-15432269D01*
X5460076Y-15523419D01*
X5599293Y-15599008D01*
X5752522Y-15639207D01*
X5836477Y-15640526D01*
X5903319Y-15641576D01*
X5903322Y-15641576D01*
X5910916Y-15641695D01*
X6065332Y-15606329D01*
X6135742Y-15570917D01*
X6200072Y-15538563D01*
X6200075Y-15538561D01*
X6206855Y-15535151D01*
X6212626Y-15530222D01*
X6212629Y-15530220D01*
X6321536Y-15437204D01*
X6321536Y-15437203D01*
X6327314Y-15432269D01*
X6419755Y-15303624D01*
X6478842Y-15156641D01*
X6491221Y-15069658D01*
X6500581Y-15003891D01*
X6500581Y-15003888D01*
X6501162Y-14999807D01*
X6501307Y-14986000D01*
X6499560Y-14971565D01*
X6483189Y-14836275D01*
X6483188Y-14836272D01*
X6482276Y-14828733D01*
X6479591Y-14821628D01*
X6478465Y-14817043D01*
X6481641Y-14746117D01*
X6522658Y-14688168D01*
X6545798Y-14675105D01*
X6545485Y-14674533D01*
X6553361Y-14670221D01*
X6561764Y-14667071D01*
X6568943Y-14661691D01*
X6568946Y-14661689D01*
X6670224Y-14585785D01*
X6677404Y-14580404D01*
X6720187Y-14523319D01*
X6758689Y-14471946D01*
X6758691Y-14471943D01*
X6764071Y-14464764D01*
X6797889Y-14374553D01*
X6812026Y-14336843D01*
X6812026Y-14336841D01*
X6814798Y-14329448D01*
X6821500Y-14267756D01*
X6821500Y-13672244D01*
X6814798Y-13610552D01*
X6801412Y-13574843D01*
X6791328Y-13547945D01*
X6764071Y-13475236D01*
X6758691Y-13468057D01*
X6758689Y-13468054D01*
X6682785Y-13366776D01*
X6677404Y-13359596D01*
X6656977Y-13344287D01*
X6568946Y-13278311D01*
X6568943Y-13278309D01*
X6561764Y-13272929D01*
X6472046Y-13239296D01*
X6433843Y-13224974D01*
X6433841Y-13224974D01*
X6426448Y-13222202D01*
X6418598Y-13221349D01*
X6418597Y-13221349D01*
X6368153Y-13215869D01*
X6368152Y-13215869D01*
X6364756Y-13215500D01*
X5319244Y-13215500D01*
X5315848Y-13215869D01*
X5315847Y-13215869D01*
X5265403Y-13221349D01*
X5265402Y-13221349D01*
X5257552Y-13222202D01*
X5250159Y-13224974D01*
X5250157Y-13224974D01*
X5211954Y-13239296D01*
X5122236Y-13272929D01*
X5115057Y-13278309D01*
X5115054Y-13278311D01*
X5027023Y-13344287D01*
X5006596Y-13359596D01*
X5001215Y-13366776D01*
X4925311Y-13468054D01*
X4925309Y-13468057D01*
X4919929Y-13475236D01*
X4892672Y-13547945D01*
X4882589Y-13574843D01*
X4869202Y-13610552D01*
X4862500Y-13672244D01*
X4862500Y-14267756D01*
X-5441100Y-14267756D01*
X-5436838Y-14237807D01*
X-5436693Y-14224000D01*
X-5455724Y-14066733D01*
X-5458409Y-14059628D01*
X-5459535Y-14055043D01*
X-5456359Y-13984117D01*
X-5415342Y-13926168D01*
X-5392202Y-13913105D01*
X-5392515Y-13912533D01*
X-5384639Y-13908221D01*
X-5376236Y-13905071D01*
X-5369057Y-13899691D01*
X-5369054Y-13899689D01*
X-5267776Y-13823785D01*
X-5260596Y-13818404D01*
X-5239072Y-13789684D01*
X-5179311Y-13709946D01*
X-5179309Y-13709943D01*
X-5173929Y-13702764D01*
X-5136816Y-13603763D01*
X-5125974Y-13574843D01*
X-5125974Y-13574841D01*
X-5123202Y-13567448D01*
X-5116500Y-13505756D01*
X-5116500Y-12910244D01*
X-5123202Y-12848552D01*
X-5173929Y-12713236D01*
X-5179309Y-12706057D01*
X-5179311Y-12706054D01*
X-5255215Y-12604776D01*
X-5260596Y-12597596D01*
X-5281023Y-12582287D01*
X-5369054Y-12516311D01*
X-5369057Y-12516309D01*
X-5376236Y-12510929D01*
X-5465954Y-12477296D01*
X-5504157Y-12462974D01*
X-5504159Y-12462974D01*
X-5511552Y-12460202D01*
X-5519402Y-12459349D01*
X-5519403Y-12459349D01*
X-5569847Y-12453869D01*
X-5569848Y-12453869D01*
X-5573244Y-12453500D01*
X-6618756Y-12453500D01*
X-6622152Y-12453869D01*
X-6622153Y-12453869D01*
X-6672597Y-12459349D01*
X-6672598Y-12459349D01*
X-6680448Y-12460202D01*
X-6687841Y-12462974D01*
X-6687843Y-12462974D01*
X-6726046Y-12477296D01*
X-6815764Y-12510929D01*
X-6822943Y-12516309D01*
X-6822946Y-12516311D01*
X-6910977Y-12582287D01*
X-6931404Y-12597596D01*
X-6936785Y-12604776D01*
X-7012689Y-12706054D01*
X-7012691Y-12706057D01*
X-7018071Y-12713236D01*
X-7068798Y-12848552D01*
X-7075500Y-12910244D01*
X-7075500Y-13505756D01*
X-11483547Y-13505756D01*
X-14158511Y-8609780D01*
X-14173619Y-8540410D01*
X-14148825Y-8473884D01*
X-14110938Y-8440249D01*
X-63000Y-329667D01*
X5995Y-312929D01*
X63000Y-329667D01*
G37*
%TD.AperFunction*%
%TD*%
M02*
