G04 #@! TF.GenerationSoftware,KiCad,Pcbnew,(6.0.2)*
G04 #@! TF.CreationDate,2022-06-23T15:06:55+02:00*
G04 #@! TF.ProjectId,cup_connect,6375705f-636f-46e6-9e65-63742e6b6963,rev?*
G04 #@! TF.SameCoordinates,Original*
G04 #@! TF.FileFunction,Legend,Top*
G04 #@! TF.FilePolarity,Positive*
%FSLAX46Y46*%
G04 Gerber Fmt 4.6, Leading zero omitted, Abs format (unit mm)*
G04 Created by KiCad (PCBNEW (6.0.2)) date 2022-06-23 15:06:55*
%MOMM*%
%LPD*%
G01*
G04 APERTURE LIST*
G04 Aperture macros list*
%AMRoundRect*
0 Rectangle with rounded corners*
0 $1 Rounding radius*
0 $2 $3 $4 $5 $6 $7 $8 $9 X,Y pos of 4 corners*
0 Add a 4 corners polygon primitive as box body*
4,1,4,$2,$3,$4,$5,$6,$7,$8,$9,$2,$3,0*
0 Add four circle primitives for the rounded corners*
1,1,$1+$1,$2,$3*
1,1,$1+$1,$4,$5*
1,1,$1+$1,$6,$7*
1,1,$1+$1,$8,$9*
0 Add four rect primitives between the rounded corners*
20,1,$1+$1,$2,$3,$4,$5,0*
20,1,$1+$1,$4,$5,$6,$7,0*
20,1,$1+$1,$6,$7,$8,$9,0*
20,1,$1+$1,$8,$9,$2,$3,0*%
%AMRotRect*
0 Rectangle, with rotation*
0 The origin of the aperture is its center*
0 $1 length*
0 $2 width*
0 $3 Rotation angle, in degrees counterclockwise*
0 Add horizontal line*
21,1,$1,$2,0,0,$3*%
G04 Aperture macros list end*
%ADD10C,0.200000*%
%ADD11C,0.150000*%
%ADD12C,0.120000*%
%ADD13C,0.520000*%
%ADD14RoundRect,0.200000X0.275000X-0.200000X0.275000X0.200000X-0.275000X0.200000X-0.275000X-0.200000X0*%
%ADD15R,1.700000X1.700000*%
%ADD16O,1.700000X1.700000*%
%ADD17RoundRect,0.250000X0.475000X-0.250000X0.475000X0.250000X-0.475000X0.250000X-0.475000X-0.250000X0*%
%ADD18RotRect,3.750000X1.700000X120.000000*%
G04 APERTURE END LIST*
D10*
X-817619Y-21470857D02*
X-817619Y-21947047D01*
X-1817619Y-21947047D01*
X-1341428Y-21137523D02*
X-1341428Y-20804190D01*
X-817619Y-20661333D02*
X-817619Y-21137523D01*
X-1817619Y-21137523D01*
X-1817619Y-20661333D01*
X-817619Y-20232761D02*
X-1817619Y-20232761D01*
X-1817619Y-19994666D01*
X-1770000Y-19851809D01*
X-1674761Y-19756571D01*
X-1579523Y-19708952D01*
X-1389047Y-19661333D01*
X-1246190Y-19661333D01*
X-1055714Y-19708952D01*
X-960476Y-19756571D01*
X-865238Y-19851809D01*
X-817619Y-19994666D01*
X-817619Y-20232761D01*
D11*
X-23442939Y-21315171D02*
X-23449319Y-21208882D01*
X-23520747Y-21085165D01*
X-23633415Y-20985256D01*
X-23763513Y-20950397D01*
X-23869801Y-20956776D01*
X-24058568Y-21010775D01*
X-24182286Y-21082204D01*
X-24323434Y-21218681D01*
X-24382103Y-21307539D01*
X-24416962Y-21437637D01*
X-24386773Y-21585165D01*
X-24339154Y-21667643D01*
X-24226486Y-21767552D01*
X-24161437Y-21784981D01*
X-23872762Y-21618315D01*
X-23968000Y-21453357D01*
X-24029630Y-22203754D02*
X-23163605Y-21703754D01*
X-23743916Y-22698626D01*
X-22877890Y-22198626D01*
X-23505821Y-23111019D02*
X-22639795Y-22611019D01*
X-22520747Y-22817215D01*
X-22490558Y-22964743D01*
X-22525418Y-23094840D01*
X-22584087Y-23183699D01*
X-22725235Y-23320176D01*
X-22848952Y-23391605D01*
X-23037719Y-23445604D01*
X-23144007Y-23451983D01*
X-23274105Y-23417124D01*
X-23386773Y-23317215D01*
X-23505821Y-23111019D01*
X-29973986Y-25088233D02*
X-30212081Y-24675840D01*
X-30648283Y-24872696D01*
X-30583235Y-24890125D01*
X-30494376Y-24948795D01*
X-30375329Y-25154991D01*
X-30368949Y-25261279D01*
X-30386379Y-25326328D01*
X-30445048Y-25415186D01*
X-30651244Y-25534234D01*
X-30757532Y-25540614D01*
X-30822581Y-25523184D01*
X-30911440Y-25464515D01*
X-31030487Y-25258318D01*
X-31036867Y-25152030D01*
X-31019437Y-25086981D01*
X-29807319Y-25376908D02*
X-30506678Y-26165583D01*
X-29473986Y-25954258D01*
D10*
X1674761Y-22018476D02*
X1722380Y-21875619D01*
X1722380Y-21637523D01*
X1674761Y-21542285D01*
X1627142Y-21494666D01*
X1531904Y-21447047D01*
X1436666Y-21447047D01*
X1341428Y-21494666D01*
X1293809Y-21542285D01*
X1246190Y-21637523D01*
X1198571Y-21828000D01*
X1150952Y-21923238D01*
X1103333Y-21970857D01*
X1008095Y-22018476D01*
X912857Y-22018476D01*
X817619Y-21970857D01*
X770000Y-21923238D01*
X722380Y-21828000D01*
X722380Y-21589904D01*
X770000Y-21447047D01*
X1627142Y-20447047D02*
X1674761Y-20494666D01*
X1722380Y-20637523D01*
X1722380Y-20732761D01*
X1674761Y-20875619D01*
X1579523Y-20970857D01*
X1484285Y-21018476D01*
X1293809Y-21066095D01*
X1150952Y-21066095D01*
X960476Y-21018476D01*
X865238Y-20970857D01*
X770000Y-20875619D01*
X722380Y-20732761D01*
X722380Y-20637523D01*
X770000Y-20494666D01*
X817619Y-20447047D01*
X1722380Y-19542285D02*
X1722380Y-20018476D01*
X722380Y-20018476D01*
D11*
X-12667427Y-12088372D02*
X-12519899Y-12058182D01*
X-12313703Y-11939135D01*
X-12255034Y-11850276D01*
X-12237604Y-11785228D01*
X-12243983Y-11678939D01*
X-12291603Y-11596461D01*
X-12380461Y-11537792D01*
X-12445510Y-11520362D01*
X-12551798Y-11526742D01*
X-12740565Y-11580741D01*
X-12846853Y-11587120D01*
X-12911902Y-11569691D01*
X-13000760Y-11511021D01*
X-13048379Y-11428543D01*
X-13054759Y-11322255D01*
X-13037329Y-11257206D01*
X-12978660Y-11168347D01*
X-12772463Y-11049300D01*
X-12624936Y-11019111D01*
X-12039496Y-11175979D02*
X-11750821Y-11009312D01*
X-11365199Y-11391516D02*
X-11777592Y-11629611D01*
X-12277592Y-10763586D01*
X-11865199Y-10525490D01*
X-10994045Y-11177230D02*
X-11494045Y-10311205D01*
X-10499173Y-10891516D01*
X-10999173Y-10025490D01*
X-10151829Y-10635991D02*
X-10004302Y-10605801D01*
X-9798105Y-10486754D01*
X-9739436Y-10397895D01*
X-9722006Y-10332847D01*
X-9728386Y-10226559D01*
X-9776005Y-10144080D01*
X-9864863Y-10085411D01*
X-9929912Y-10067981D01*
X-10036200Y-10074361D01*
X-10224967Y-10128360D01*
X-10331255Y-10134739D01*
X-10396304Y-10117310D01*
X-10485162Y-10058640D01*
X-10532781Y-9976162D01*
X-10539161Y-9869874D01*
X-10521731Y-9804825D01*
X-10463062Y-9715967D01*
X-10256866Y-9596919D01*
X-10109338Y-9566730D01*
X-9523899Y-9723598D02*
X-9235224Y-9556931D01*
X-8849601Y-9939135D02*
X-9261994Y-10177230D01*
X-9761994Y-9311205D01*
X-9349601Y-9073109D01*
X-21283939Y-19994371D02*
X-21290319Y-19888082D01*
X-21361747Y-19764365D01*
X-21474415Y-19664456D01*
X-21604513Y-19629597D01*
X-21710801Y-19635976D01*
X-21899568Y-19689975D01*
X-22023286Y-19761404D01*
X-22164434Y-19897881D01*
X-22223103Y-19986739D01*
X-22257962Y-20116837D01*
X-22227773Y-20264365D01*
X-22180154Y-20346843D01*
X-22067486Y-20446752D01*
X-22002437Y-20464181D01*
X-21713762Y-20297515D01*
X-21809000Y-20132557D01*
X-21870630Y-20882954D02*
X-21004605Y-20382954D01*
X-21584916Y-21377826D01*
X-20718890Y-20877826D01*
X-21346821Y-21790219D02*
X-20480795Y-21290219D01*
X-20361747Y-21496415D01*
X-20331558Y-21643943D01*
X-20366418Y-21774040D01*
X-20425087Y-21862899D01*
X-20566235Y-21999376D01*
X-20689952Y-22070805D01*
X-20878719Y-22124804D01*
X-20985007Y-22131183D01*
X-21115105Y-22096324D01*
X-21227773Y-21996415D01*
X-21346821Y-21790219D01*
D10*
X6754761Y-22002476D02*
X6802380Y-21859619D01*
X6802380Y-21621523D01*
X6754761Y-21526285D01*
X6707142Y-21478666D01*
X6611904Y-21431047D01*
X6516666Y-21431047D01*
X6421428Y-21478666D01*
X6373809Y-21526285D01*
X6326190Y-21621523D01*
X6278571Y-21812000D01*
X6230952Y-21907238D01*
X6183333Y-21954857D01*
X6088095Y-22002476D01*
X5992857Y-22002476D01*
X5897619Y-21954857D01*
X5850000Y-21907238D01*
X5802380Y-21812000D01*
X5802380Y-21573904D01*
X5850000Y-21431047D01*
X6278571Y-21002476D02*
X6278571Y-20669142D01*
X6802380Y-20526285D02*
X6802380Y-21002476D01*
X5802380Y-21002476D01*
X5802380Y-20526285D01*
X6802380Y-20097714D02*
X5802380Y-20097714D01*
X6802380Y-19526285D01*
X5802380Y-19526285D01*
X6754761Y-19097714D02*
X6802380Y-18954857D01*
X6802380Y-18716761D01*
X6754761Y-18621523D01*
X6707142Y-18573904D01*
X6611904Y-18526285D01*
X6516666Y-18526285D01*
X6421428Y-18573904D01*
X6373809Y-18621523D01*
X6326190Y-18716761D01*
X6278571Y-18907238D01*
X6230952Y-19002476D01*
X6183333Y-19050095D01*
X6088095Y-19097714D01*
X5992857Y-19097714D01*
X5897619Y-19050095D01*
X5850000Y-19002476D01*
X5802380Y-18907238D01*
X5802380Y-18669142D01*
X5850000Y-18526285D01*
X6278571Y-18097714D02*
X6278571Y-17764380D01*
X6802380Y-17621523D02*
X6802380Y-18097714D01*
X5802380Y-18097714D01*
X5802380Y-17621523D01*
D11*
X-19321795Y-18211968D02*
X-19012271Y-18748079D01*
X-19508852Y-18649880D01*
X-19437424Y-18773598D01*
X-19431044Y-18879886D01*
X-19448474Y-18944935D01*
X-19507143Y-19033793D01*
X-19713339Y-19152841D01*
X-19819628Y-19159221D01*
X-19884676Y-19141791D01*
X-19973535Y-19083122D01*
X-20116392Y-18835686D01*
X-20122772Y-18729398D01*
X-20105342Y-18664349D01*
X-18869414Y-18995515D02*
X-19568773Y-19784190D01*
X-18536081Y-19572865D01*
X-18417033Y-19779062D02*
X-18107509Y-20315173D01*
X-18604091Y-20216974D01*
X-18532662Y-20340692D01*
X-18526282Y-20446980D01*
X-18543712Y-20512029D01*
X-18602381Y-20600887D01*
X-18808578Y-20719935D01*
X-18914866Y-20726314D01*
X-18979915Y-20708884D01*
X-19068773Y-20650215D01*
X-19211630Y-20402780D01*
X-19218010Y-20296491D01*
X-19200580Y-20231443D01*
X-15689676Y-16219578D02*
X-15659487Y-16367106D01*
X-15540440Y-16573302D01*
X-15451581Y-16631971D01*
X-15386532Y-16649401D01*
X-15280244Y-16643021D01*
X-15197766Y-16595402D01*
X-15139097Y-16506544D01*
X-15121667Y-16441495D01*
X-15128047Y-16335207D01*
X-15182045Y-16146440D01*
X-15188425Y-16040152D01*
X-15170995Y-15975103D01*
X-15112326Y-15886245D01*
X-15029848Y-15838626D01*
X-14923559Y-15832246D01*
X-14858511Y-15849676D01*
X-14769652Y-15908345D01*
X-14650605Y-16114541D01*
X-14620415Y-16262069D01*
X-15230916Y-17109413D02*
X-14364890Y-16609413D01*
X-14245843Y-16815610D01*
X-14215653Y-16963137D01*
X-14250513Y-17093235D01*
X-14309182Y-17182093D01*
X-14450330Y-17318570D01*
X-14574048Y-17389999D01*
X-14762814Y-17443998D01*
X-14869103Y-17450378D01*
X-14999200Y-17415518D01*
X-15111868Y-17315610D01*
X-15230916Y-17109413D01*
X-14507289Y-17791342D02*
X-14269194Y-18203735D01*
X-14802344Y-17851721D02*
X-13769652Y-17640396D01*
X-14469011Y-18429071D01*
D10*
X-6897619Y-21272476D02*
X-6897619Y-21748666D01*
X-6421428Y-21796285D01*
X-6469047Y-21748666D01*
X-6516666Y-21653428D01*
X-6516666Y-21415333D01*
X-6469047Y-21320095D01*
X-6421428Y-21272476D01*
X-6326190Y-21224857D01*
X-6088095Y-21224857D01*
X-5992857Y-21272476D01*
X-5945238Y-21320095D01*
X-5897619Y-21415333D01*
X-5897619Y-21653428D01*
X-5945238Y-21748666D01*
X-5992857Y-21796285D01*
X-6897619Y-20939142D02*
X-5897619Y-20605809D01*
X-6897619Y-20272476D01*
D11*
X-26494201Y-22910459D02*
X-26732297Y-22498066D01*
X-25866271Y-21998066D01*
X-25873902Y-22937230D02*
X-25707236Y-23225905D01*
X-26089440Y-23611528D02*
X-26327535Y-23199134D01*
X-25461509Y-22699134D01*
X-25223414Y-23111528D01*
X-25875154Y-23982681D02*
X-25009128Y-23482681D01*
X-24890081Y-23688878D01*
X-24859892Y-23836405D01*
X-24894751Y-23966503D01*
X-24953420Y-24055361D01*
X-25094568Y-24191839D01*
X-25218286Y-24263267D01*
X-25407053Y-24317266D01*
X-25513341Y-24323646D01*
X-25643438Y-24288786D01*
X-25756106Y-24188878D01*
X-25875154Y-23982681D01*
X-17963772Y-17586398D02*
X-17933582Y-17733925D01*
X-17814535Y-17940122D01*
X-17725676Y-17998791D01*
X-17660628Y-18016221D01*
X-17554339Y-18009841D01*
X-17471861Y-17962222D01*
X-17413192Y-17873364D01*
X-17395762Y-17808315D01*
X-17402142Y-17702027D01*
X-17456141Y-17513260D01*
X-17462520Y-17406972D01*
X-17445091Y-17341923D01*
X-17386421Y-17253064D01*
X-17303943Y-17205445D01*
X-17197655Y-17199066D01*
X-17132606Y-17216495D01*
X-17043747Y-17275165D01*
X-16924700Y-17481361D01*
X-16894511Y-17628889D01*
X-17136818Y-18923485D02*
X-17201867Y-18906056D01*
X-17314535Y-18806147D01*
X-17362154Y-18723669D01*
X-17392343Y-18576141D01*
X-17357484Y-18446043D01*
X-17298814Y-18357185D01*
X-17157667Y-18220708D01*
X-17033949Y-18149279D01*
X-16845182Y-18095280D01*
X-16738894Y-18088901D01*
X-16608796Y-18123760D01*
X-16496128Y-18223669D01*
X-16448509Y-18306147D01*
X-16418320Y-18453675D01*
X-16435750Y-18518723D01*
X-16766916Y-19754651D02*
X-17005011Y-19342258D01*
X-16138986Y-18842258D01*
D10*
X-4310000Y-21335904D02*
X-4357619Y-21431142D01*
X-4357619Y-21574000D01*
X-4310000Y-21716857D01*
X-4214761Y-21812095D01*
X-4119523Y-21859714D01*
X-3929047Y-21907333D01*
X-3786190Y-21907333D01*
X-3595714Y-21859714D01*
X-3500476Y-21812095D01*
X-3405238Y-21716857D01*
X-3357619Y-21574000D01*
X-3357619Y-21478761D01*
X-3405238Y-21335904D01*
X-3452857Y-21288285D01*
X-3786190Y-21288285D01*
X-3786190Y-21478761D01*
X-3357619Y-20859714D02*
X-4357619Y-20859714D01*
X-3357619Y-20288285D01*
X-4357619Y-20288285D01*
X-3357619Y-19812095D02*
X-4357619Y-19812095D01*
X-4357619Y-19574000D01*
X-4310000Y-19431142D01*
X-4214761Y-19335904D01*
X-4119523Y-19288285D01*
X-3929047Y-19240666D01*
X-3786190Y-19240666D01*
X-3595714Y-19288285D01*
X-3500476Y-19335904D01*
X-3405238Y-19431142D01*
X-3357619Y-19574000D01*
X-3357619Y-19812095D01*
D11*
X-28851630Y-23929741D02*
X-27985605Y-23429741D01*
X-28565916Y-24424613D01*
X-27699890Y-23924613D01*
X-27959628Y-25284259D02*
X-28024676Y-25266829D01*
X-28137344Y-25166921D01*
X-28184963Y-25084442D01*
X-28215153Y-24936915D01*
X-28180293Y-24806817D01*
X-28121624Y-24717959D01*
X-27980476Y-24581481D01*
X-27856758Y-24510053D01*
X-27667992Y-24456054D01*
X-27561704Y-24449674D01*
X-27431606Y-24484534D01*
X-27318938Y-24584442D01*
X-27271319Y-24666921D01*
X-27241130Y-24814448D01*
X-27258559Y-24879497D01*
D10*
X4214761Y-22042285D02*
X4262380Y-21899428D01*
X4262380Y-21661333D01*
X4214761Y-21566095D01*
X4167142Y-21518476D01*
X4071904Y-21470857D01*
X3976666Y-21470857D01*
X3881428Y-21518476D01*
X3833809Y-21566095D01*
X3786190Y-21661333D01*
X3738571Y-21851809D01*
X3690952Y-21947047D01*
X3643333Y-21994666D01*
X3548095Y-22042285D01*
X3452857Y-22042285D01*
X3357619Y-21994666D01*
X3310000Y-21947047D01*
X3262380Y-21851809D01*
X3262380Y-21613714D01*
X3310000Y-21470857D01*
X4262380Y-21042285D02*
X3262380Y-21042285D01*
X3262380Y-20804190D01*
X3310000Y-20661333D01*
X3405238Y-20566095D01*
X3500476Y-20518476D01*
X3690952Y-20470857D01*
X3833809Y-20470857D01*
X4024285Y-20518476D01*
X4119523Y-20566095D01*
X4214761Y-20661333D01*
X4262380Y-20804190D01*
X4262380Y-21042285D01*
X3976666Y-20089904D02*
X3976666Y-19613714D01*
X4262380Y-20185142D02*
X3262380Y-19851809D01*
X4262380Y-19518476D01*
D11*
X-3230619Y-16422666D02*
X-3706809Y-16756000D01*
X-3230619Y-16994095D02*
X-4230619Y-16994095D01*
X-4230619Y-16613142D01*
X-4183000Y-16517904D01*
X-4135380Y-16470285D01*
X-4040142Y-16422666D01*
X-3897285Y-16422666D01*
X-3802047Y-16470285D01*
X-3754428Y-16517904D01*
X-3706809Y-16613142D01*
X-3706809Y-16994095D01*
X-4135380Y-16041714D02*
X-4183000Y-15994095D01*
X-4230619Y-15898857D01*
X-4230619Y-15660761D01*
X-4183000Y-15565523D01*
X-4135380Y-15517904D01*
X-4040142Y-15470285D01*
X-3944904Y-15470285D01*
X-3802047Y-15517904D01*
X-3230619Y-16089333D01*
X-3230619Y-15470285D01*
X8547380Y-24463333D02*
X9261666Y-24463333D01*
X9404523Y-24510952D01*
X9499761Y-24606190D01*
X9547380Y-24749047D01*
X9547380Y-24844285D01*
X8642619Y-24034761D02*
X8595000Y-23987142D01*
X8547380Y-23891904D01*
X8547380Y-23653809D01*
X8595000Y-23558571D01*
X8642619Y-23510952D01*
X8737857Y-23463333D01*
X8833095Y-23463333D01*
X8975952Y-23510952D01*
X9547380Y-24082380D01*
X9547380Y-23463333D01*
X5945142Y-9945666D02*
X5992761Y-9993285D01*
X6040380Y-10136142D01*
X6040380Y-10231380D01*
X5992761Y-10374238D01*
X5897523Y-10469476D01*
X5802285Y-10517095D01*
X5611809Y-10564714D01*
X5468952Y-10564714D01*
X5278476Y-10517095D01*
X5183238Y-10469476D01*
X5088000Y-10374238D01*
X5040380Y-10231380D01*
X5040380Y-10136142D01*
X5088000Y-9993285D01*
X5135619Y-9945666D01*
X6040380Y-8993285D02*
X6040380Y-9564714D01*
X6040380Y-9279000D02*
X5040380Y-9279000D01*
X5183238Y-9374238D01*
X5278476Y-9469476D01*
X5326095Y-9564714D01*
X-9072619Y-14009666D02*
X-9548809Y-14343000D01*
X-9072619Y-14581095D02*
X-10072619Y-14581095D01*
X-10072619Y-14200142D01*
X-10025000Y-14104904D01*
X-9977380Y-14057285D01*
X-9882142Y-14009666D01*
X-9739285Y-14009666D01*
X-9644047Y-14057285D01*
X-9596428Y-14104904D01*
X-9548809Y-14200142D01*
X-9548809Y-14581095D01*
X-10072619Y-13676333D02*
X-10072619Y-13057285D01*
X-9691666Y-13390619D01*
X-9691666Y-13247761D01*
X-9644047Y-13152523D01*
X-9596428Y-13104904D01*
X-9501190Y-13057285D01*
X-9263095Y-13057285D01*
X-9167857Y-13104904D01*
X-9120238Y-13152523D01*
X-9072619Y-13247761D01*
X-9072619Y-13533476D01*
X-9120238Y-13628714D01*
X-9167857Y-13676333D01*
X-7040619Y-14009666D02*
X-7516809Y-14343000D01*
X-7040619Y-14581095D02*
X-8040619Y-14581095D01*
X-8040619Y-14200142D01*
X-7993000Y-14104904D01*
X-7945380Y-14057285D01*
X-7850142Y-14009666D01*
X-7707285Y-14009666D01*
X-7612047Y-14057285D01*
X-7564428Y-14104904D01*
X-7516809Y-14200142D01*
X-7516809Y-14581095D01*
X-7040619Y-13057285D02*
X-7040619Y-13628714D01*
X-7040619Y-13343000D02*
X-8040619Y-13343000D01*
X-7897761Y-13438238D01*
X-7802523Y-13533476D01*
X-7754904Y-13628714D01*
X-5738857Y-9818666D02*
X-5691238Y-9866285D01*
X-5643619Y-10009142D01*
X-5643619Y-10104380D01*
X-5691238Y-10247238D01*
X-5786476Y-10342476D01*
X-5881714Y-10390095D01*
X-6072190Y-10437714D01*
X-6215047Y-10437714D01*
X-6405523Y-10390095D01*
X-6500761Y-10342476D01*
X-6596000Y-10247238D01*
X-6643619Y-10104380D01*
X-6643619Y-10009142D01*
X-6596000Y-9866285D01*
X-6548380Y-9818666D01*
X-6548380Y-9437714D02*
X-6596000Y-9390095D01*
X-6643619Y-9294857D01*
X-6643619Y-9056761D01*
X-6596000Y-8961523D01*
X-6548380Y-8913904D01*
X-6453142Y-8866285D01*
X-6357904Y-8866285D01*
X-6215047Y-8913904D01*
X-5643619Y-9485333D01*
X-5643619Y-8866285D01*
X-37460515Y-24471150D02*
X-37103372Y-25089740D01*
X-37073183Y-25237267D01*
X-37108043Y-25367365D01*
X-37207951Y-25480033D01*
X-37290430Y-25527652D01*
X-36094490Y-24837176D02*
X-36589361Y-25122890D01*
X-36341926Y-24980033D02*
X-36841926Y-24114007D01*
X-36852976Y-24285344D01*
X-36887835Y-24415442D01*
X-36946504Y-24504300D01*
D12*
X-5729500Y-16493258D02*
X-5729500Y-16018742D01*
X-4684500Y-16493258D02*
X-4684500Y-16018742D01*
X7655000Y-25460000D02*
X6325000Y-25460000D01*
X7655000Y-24130000D02*
X7655000Y-25460000D01*
X5055000Y-22800000D02*
X-7705000Y-22800000D01*
X5055000Y-22800000D02*
X5055000Y-25460000D01*
X5055000Y-25460000D02*
X-7705000Y-25460000D01*
X-7705000Y-22800000D02*
X-7705000Y-25460000D01*
X6323000Y-12707252D02*
X6323000Y-12184748D01*
X4853000Y-12707252D02*
X4853000Y-12184748D01*
X-9129500Y-16493258D02*
X-9129500Y-16018742D01*
X-10174500Y-16493258D02*
X-10174500Y-16018742D01*
X-7888500Y-16493258D02*
X-7888500Y-16018742D01*
X-6843500Y-16493258D02*
X-6843500Y-16018742D01*
X-6831000Y-12519252D02*
X-6831000Y-11996748D01*
X-5361000Y-12519252D02*
X-5361000Y-11996748D01*
D13*
X-32895856Y-26122707D02*
X-36070856Y-20623445D01*
%LPC*%
D14*
X-5207000Y-17081000D03*
X-5207000Y-15431000D03*
D15*
X6325000Y-24130000D03*
D16*
X3785000Y-24130000D03*
X1245000Y-24130000D03*
X-1295000Y-24130000D03*
X-3835000Y-24130000D03*
X-6375000Y-24130000D03*
D17*
X5588000Y-13396000D03*
X5588000Y-11496000D03*
D14*
X-9652000Y-17081000D03*
X-9652000Y-15431000D03*
X-7366000Y-17081000D03*
X-7366000Y-15431000D03*
D17*
X-6096000Y-13208000D03*
X-6096000Y-11308000D03*
D18*
X-32029651Y-22543017D03*
X-29805947Y-21314586D03*
X-27606242Y-20044586D03*
X-25406538Y-18774586D03*
X-23206833Y-17504586D03*
X-21007128Y-16234586D03*
X-18807424Y-14964586D03*
X-16607719Y-13694586D03*
X-14432015Y-12383017D03*
M02*
