G04 #@! TF.GenerationSoftware,KiCad,Pcbnew,(6.0.2)*
G04 #@! TF.CreationDate,2022-06-23T15:06:55+02:00*
G04 #@! TF.ProjectId,cup_connect,6375705f-636f-46e6-9e65-63742e6b6963,rev?*
G04 #@! TF.SameCoordinates,Original*
G04 #@! TF.FileFunction,Copper,L2,Bot*
G04 #@! TF.FilePolarity,Positive*
%FSLAX46Y46*%
G04 Gerber Fmt 4.6, Leading zero omitted, Abs format (unit mm)*
G04 Created by KiCad (PCBNEW (6.0.2)) date 2022-06-23 15:06:55*
%MOMM*%
%LPD*%
G01*
G04 APERTURE LIST*
G04 #@! TA.AperFunction,ComponentPad*
%ADD10R,1.700000X1.700000*%
G04 #@! TD*
G04 #@! TA.AperFunction,ComponentPad*
%ADD11O,1.700000X1.700000*%
G04 #@! TD*
G04 #@! TA.AperFunction,SMDPad,CuDef*
%ADD12R,1.200000X2.200000*%
G04 #@! TD*
G04 #@! TA.AperFunction,SMDPad,CuDef*
%ADD13R,5.800000X6.400000*%
G04 #@! TD*
G04 #@! TA.AperFunction,ViaPad*
%ADD14C,0.800000*%
G04 #@! TD*
G04 #@! TA.AperFunction,Conductor*
%ADD15C,0.250000*%
G04 #@! TD*
G04 APERTURE END LIST*
D10*
X6325000Y-24130000D03*
D11*
X3785000Y-24130000D03*
X1245000Y-24130000D03*
X-1295000Y-24130000D03*
X-3835000Y-24130000D03*
X-6375000Y-24130000D03*
D12*
X2280000Y-15122000D03*
D13*
X0Y-8822000D03*
D12*
X-2280000Y-15122000D03*
D14*
X-20421600Y-17272000D03*
X-6287000Y-15431000D03*
X-6096000Y-14224000D03*
X2032000Y-7112000D03*
X0Y-11176000D03*
X-2032000Y-9144000D03*
X-25247600Y-19024600D03*
X0Y-9144000D03*
X-23037800Y-17830800D03*
X-24688800Y-20015200D03*
X-22504400Y-18745200D03*
X0Y-7112000D03*
X2032000Y-11176000D03*
X-2032000Y-7112000D03*
X2032000Y-9144000D03*
X-2032000Y-11176000D03*
X-31292800Y-23774400D03*
X5588000Y-14478000D03*
X-24892000Y-21844000D03*
X-10668000Y-17018000D03*
X-13208000Y-17526000D03*
X-8026400Y-18338800D03*
X-6858000Y-19278600D03*
X-15113000Y-19177000D03*
D15*
X-10668000Y-20320000D02*
X-12192000Y-21844000D01*
X-1295000Y-22708000D02*
X-3683000Y-20320000D01*
X-1295000Y-24130000D02*
X-1295000Y-22708000D01*
X-3683000Y-20320000D02*
X-10668000Y-20320000D01*
X-12192000Y-21844000D02*
X-24892000Y-21844000D01*
X6325000Y-23030000D02*
X313000Y-17018000D01*
X313000Y-17018000D02*
X-10668000Y-17018000D01*
X6325000Y-24130000D02*
X6325000Y-23030000D01*
X-13208000Y-17526000D02*
X-12395200Y-18338800D01*
X-2006200Y-18338800D02*
X-8026400Y-18338800D01*
X-12395200Y-18338800D02*
X-8026400Y-18338800D01*
X3785000Y-24130000D02*
X-2006200Y-18338800D01*
X1245000Y-24130000D02*
X-3606400Y-19278600D01*
X-14986000Y-19304000D02*
X-6883400Y-19304000D01*
X-15113000Y-19177000D02*
X-14986000Y-19304000D01*
X-6883400Y-19304000D02*
X-6858000Y-19278600D01*
X-3606400Y-19278600D02*
X-6858000Y-19278600D01*
G04 #@! TA.AperFunction,Conductor*
G36*
X17722121Y-12491402D02*
G01*
X17768614Y-12545058D01*
X17780000Y-12597400D01*
X17780000Y-28469201D01*
X17759998Y-28537322D01*
X17706342Y-28583815D01*
X17653995Y-28595201D01*
X-5749742Y-28594290D01*
X-31630151Y-28593283D01*
X-31698270Y-28573278D01*
X-31739544Y-28529797D01*
X-33622571Y-25234500D01*
X-33906374Y-24737844D01*
X-33922804Y-24668775D01*
X-33899285Y-24601788D01*
X-33859662Y-24566032D01*
X-32646036Y-23869970D01*
X-30638555Y-22718602D01*
X-30569513Y-22702061D01*
X-30502488Y-22725474D01*
X-30467472Y-22763666D01*
X-29808311Y-23876000D01*
X-29718000Y-24028400D01*
X-15312887Y-23929054D01*
X-7638117Y-23876125D01*
X-7620000Y-23876000D01*
X-7620000Y-22478000D01*
X-7599998Y-22409879D01*
X-7546342Y-22363386D01*
X-7494000Y-22352000D01*
X-5206000Y-22352000D01*
X-5137879Y-22372002D01*
X-5091386Y-22425658D01*
X-5080000Y-22478000D01*
X-5080000Y-24892000D01*
X-4686979Y-24892000D01*
X-4618858Y-24912002D01*
X-4599058Y-24927746D01*
X-4537207Y-24987998D01*
X-4537202Y-24988002D01*
X-4533062Y-24992035D01*
X-4364280Y-25104812D01*
X-4358977Y-25107090D01*
X-4358974Y-25107092D01*
X-4227717Y-25163484D01*
X-4177772Y-25184942D01*
X-4104756Y-25201464D01*
X-3985421Y-25228467D01*
X-3985416Y-25228468D01*
X-3979784Y-25229742D01*
X-3974013Y-25229969D01*
X-3974011Y-25229969D01*
X-3914244Y-25232317D01*
X-3776947Y-25237712D01*
X-3669652Y-25222155D01*
X-3581769Y-25209413D01*
X-3581764Y-25209412D01*
X-3576055Y-25208584D01*
X-3570591Y-25206729D01*
X-3570586Y-25206728D01*
X-3389307Y-25145192D01*
X-3389302Y-25145190D01*
X-3383835Y-25143334D01*
X-3206724Y-25044147D01*
X-3159735Y-25005067D01*
X-3058808Y-24921126D01*
X-2993643Y-24892945D01*
X-2978238Y-24892000D01*
X-2146979Y-24892000D01*
X-2078858Y-24912002D01*
X-2059058Y-24927746D01*
X-1997207Y-24987998D01*
X-1997202Y-24988002D01*
X-1993062Y-24992035D01*
X-1824280Y-25104812D01*
X-1818977Y-25107090D01*
X-1818974Y-25107092D01*
X-1687717Y-25163484D01*
X-1637772Y-25184942D01*
X-1564756Y-25201464D01*
X-1445421Y-25228467D01*
X-1445416Y-25228468D01*
X-1439784Y-25229742D01*
X-1434013Y-25229969D01*
X-1434011Y-25229969D01*
X-1374244Y-25232317D01*
X-1236947Y-25237712D01*
X-1129652Y-25222155D01*
X-1041769Y-25209413D01*
X-1041764Y-25209412D01*
X-1036055Y-25208584D01*
X-1030591Y-25206729D01*
X-1030586Y-25206728D01*
X-849307Y-25145192D01*
X-849302Y-25145190D01*
X-843835Y-25143334D01*
X-666724Y-25044147D01*
X-619735Y-25005067D01*
X-518808Y-24921126D01*
X-453643Y-24892945D01*
X-438238Y-24892000D01*
X393021Y-24892000D01*
X461142Y-24912002D01*
X480942Y-24927746D01*
X542793Y-24987998D01*
X542798Y-24988002D01*
X546938Y-24992035D01*
X715720Y-25104812D01*
X721023Y-25107090D01*
X721026Y-25107092D01*
X852283Y-25163484D01*
X902228Y-25184942D01*
X975244Y-25201464D01*
X1094579Y-25228467D01*
X1094584Y-25228468D01*
X1100216Y-25229742D01*
X1105987Y-25229969D01*
X1105989Y-25229969D01*
X1165756Y-25232317D01*
X1303053Y-25237712D01*
X1410348Y-25222155D01*
X1498231Y-25209413D01*
X1498236Y-25209412D01*
X1503945Y-25208584D01*
X1509409Y-25206729D01*
X1509414Y-25206728D01*
X1690693Y-25145192D01*
X1690698Y-25145190D01*
X1696165Y-25143334D01*
X1873276Y-25044147D01*
X1920265Y-25005067D01*
X2021192Y-24921126D01*
X2086357Y-24892945D01*
X2101762Y-24892000D01*
X2933021Y-24892000D01*
X3001142Y-24912002D01*
X3020942Y-24927746D01*
X3082793Y-24987998D01*
X3082798Y-24988002D01*
X3086938Y-24992035D01*
X3255720Y-25104812D01*
X3261023Y-25107090D01*
X3261026Y-25107092D01*
X3392283Y-25163484D01*
X3442228Y-25184942D01*
X3515244Y-25201464D01*
X3634579Y-25228467D01*
X3634584Y-25228468D01*
X3640216Y-25229742D01*
X3645987Y-25229969D01*
X3645989Y-25229969D01*
X3705756Y-25232317D01*
X3843053Y-25237712D01*
X3950348Y-25222155D01*
X4038231Y-25209413D01*
X4038236Y-25209412D01*
X4043945Y-25208584D01*
X4049409Y-25206729D01*
X4049414Y-25206728D01*
X4230693Y-25145192D01*
X4230698Y-25145190D01*
X4236165Y-25143334D01*
X4413276Y-25044147D01*
X4460265Y-25005067D01*
X4561192Y-24921126D01*
X4626357Y-24892945D01*
X4641762Y-24892000D01*
X5095775Y-24892000D01*
X5163896Y-24912002D01*
X5210389Y-24965658D01*
X5220501Y-25003174D01*
X5220501Y-25005066D01*
X5235266Y-25079301D01*
X5242161Y-25089620D01*
X5242162Y-25089622D01*
X5282516Y-25150015D01*
X5291516Y-25163484D01*
X5375699Y-25219734D01*
X5449933Y-25234500D01*
X6324858Y-25234500D01*
X7200066Y-25234499D01*
X7235818Y-25227388D01*
X7262126Y-25222156D01*
X7262128Y-25222155D01*
X7274301Y-25219734D01*
X7284621Y-25212839D01*
X7284622Y-25212838D01*
X7348168Y-25170377D01*
X7358484Y-25163484D01*
X7414734Y-25079301D01*
X7429500Y-25005067D01*
X7429500Y-25003998D01*
X7455414Y-24939820D01*
X7513368Y-24898809D01*
X7554226Y-24892000D01*
X8636000Y-24892000D01*
X8636000Y-19812000D01*
X3695884Y-19812000D01*
X3627763Y-19791998D01*
X3606789Y-19775095D01*
X619478Y-16787784D01*
X604336Y-16769036D01*
X603221Y-16767811D01*
X597571Y-16759060D01*
X589393Y-16752613D01*
X589391Y-16752611D01*
X571200Y-16738271D01*
X566759Y-16734325D01*
X566697Y-16734398D01*
X562733Y-16731039D01*
X559056Y-16727362D01*
X543308Y-16716108D01*
X538638Y-16712602D01*
X498353Y-16680844D01*
X489719Y-16677812D01*
X482266Y-16672486D01*
X433150Y-16657797D01*
X427508Y-16655964D01*
X386633Y-16641610D01*
X386632Y-16641610D01*
X379149Y-16638982D01*
X373584Y-16638500D01*
X370876Y-16638500D01*
X368242Y-16638386D01*
X368144Y-16638357D01*
X368151Y-16638193D01*
X367447Y-16638149D01*
X361222Y-16636287D01*
X307365Y-16638403D01*
X302418Y-16638500D01*
X126000Y-16638500D01*
X57879Y-16618498D01*
X11386Y-16564842D01*
X0Y-16512500D01*
X0Y-12597400D01*
X20002Y-12529279D01*
X73658Y-12482786D01*
X126000Y-12471400D01*
X17654000Y-12471400D01*
X17722121Y-12491402D01*
G37*
G04 #@! TD.AperFunction*
G04 #@! TA.AperFunction,Conductor*
G36*
X-309522Y-12466002D02*
G01*
X-263029Y-12519658D01*
X-253139Y-12588453D01*
X-253038Y-12588460D01*
X-253071Y-12588925D01*
X-252926Y-12589933D01*
X-254000Y-12597400D01*
X-254000Y-16512500D01*
X-274002Y-16580621D01*
X-327658Y-16627114D01*
X-380000Y-16638500D01*
X-10068318Y-16638500D01*
X-10136439Y-16618498D01*
X-10162886Y-16592860D01*
X-10164122Y-16593949D01*
X-10169145Y-16588251D01*
X-10173447Y-16581992D01*
X-10291725Y-16476611D01*
X-10299111Y-16472700D01*
X-10425012Y-16406039D01*
X-10425011Y-16406039D01*
X-10431726Y-16402484D01*
X-10585367Y-16363892D01*
X-10592966Y-16363852D01*
X-10592967Y-16363852D01*
X-10658819Y-16363507D01*
X-10743779Y-16363062D01*
X-10751159Y-16364834D01*
X-10751161Y-16364834D01*
X-10890437Y-16398271D01*
X-10890440Y-16398272D01*
X-10897816Y-16400043D01*
X-11038586Y-16472700D01*
X-11157961Y-16576838D01*
X-11249050Y-16706444D01*
X-11250801Y-16705214D01*
X-11293048Y-16748118D01*
X-11354285Y-16764000D01*
X-12192000Y-16764000D01*
X-12447949Y-16914039D01*
X-12648111Y-17031375D01*
X-12716994Y-17048569D01*
X-12784238Y-17025793D01*
X-12795650Y-17016752D01*
X-12826049Y-16989668D01*
X-12831725Y-16984611D01*
X-12971726Y-16910484D01*
X-13125367Y-16871892D01*
X-13132966Y-16871852D01*
X-13132967Y-16871852D01*
X-13198819Y-16871507D01*
X-13283779Y-16871062D01*
X-13291159Y-16872834D01*
X-13291161Y-16872834D01*
X-13430437Y-16906271D01*
X-13430440Y-16906272D01*
X-13437816Y-16908043D01*
X-13578586Y-16980700D01*
X-13697961Y-17084838D01*
X-13789050Y-17214444D01*
X-13846594Y-17362037D01*
X-13867271Y-17519096D01*
X-13866437Y-17526646D01*
X-13852703Y-17651051D01*
X-13865109Y-17720956D01*
X-13914221Y-17773578D01*
X-13917771Y-17775659D01*
X-15176491Y-18513529D01*
X-15210798Y-18527348D01*
X-15335436Y-18557271D01*
X-15335438Y-18557272D01*
X-15342816Y-18559043D01*
X-15483586Y-18631700D01*
X-15489305Y-18636689D01*
X-15582304Y-18717818D01*
X-15602961Y-18735838D01*
X-15607326Y-18742049D01*
X-15620314Y-18760529D01*
X-15659679Y-18796777D01*
X-19450404Y-21018926D01*
X-19519287Y-21036120D01*
X-19586531Y-21013344D01*
X-19622169Y-20975052D01*
X-21069686Y-18562524D01*
X-21780342Y-17378096D01*
X-21798238Y-17309393D01*
X-21776149Y-17241921D01*
X-21739080Y-17206425D01*
X-19923149Y-16071468D01*
X-19854781Y-16052326D01*
X-19786918Y-16073185D01*
X-19746970Y-16115803D01*
X-18829739Y-17720956D01*
X-18796000Y-17780000D01*
X-17467159Y-17025793D01*
X-9426930Y-12462420D01*
X-9364736Y-12446000D01*
X-377643Y-12446000D01*
X-309522Y-12466002D01*
G37*
G04 #@! TD.AperFunction*
G04 #@! TA.AperFunction,Conductor*
G36*
X5674Y-1802013D02*
G01*
X304324Y-1802272D01*
X312090Y-1802518D01*
X902731Y-1839507D01*
X910467Y-1840232D01*
X1204472Y-1876942D01*
X1497696Y-1913554D01*
X1505347Y-1914750D01*
X2086957Y-2024131D01*
X2094536Y-2025800D01*
X2370514Y-2095555D01*
X2668272Y-2170815D01*
X2675743Y-2172950D01*
X3239464Y-2353056D01*
X3246789Y-2355648D01*
X3798322Y-2570153D01*
X3805473Y-2573191D01*
X4342744Y-2821286D01*
X4349694Y-2824759D01*
X4842348Y-3090245D01*
X4856677Y-3100215D01*
X4862264Y-3103452D01*
X4871580Y-3111647D01*
X4884257Y-3115971D01*
X4906566Y-3126100D01*
X37859407Y-22151432D01*
X37861782Y-22152803D01*
X37910775Y-22204185D01*
X37924782Y-22261971D01*
X37922348Y-28470034D01*
X37902319Y-28538147D01*
X37848645Y-28584619D01*
X37796343Y-28595985D01*
X26604732Y-28595550D01*
X18159994Y-28595221D01*
X18091874Y-28575216D01*
X18045383Y-28521559D01*
X18035357Y-28469201D01*
X18034000Y-28469201D01*
X18034000Y-12597400D01*
X18028196Y-12543410D01*
X18016810Y-12491068D01*
X18009616Y-12464845D01*
X17986403Y-12424080D01*
X17963638Y-12384102D01*
X17963635Y-12384098D01*
X17960575Y-12378724D01*
X17914082Y-12325068D01*
X17881498Y-12293627D01*
X17793681Y-12247691D01*
X17725560Y-12227689D01*
X17721101Y-12227048D01*
X17721097Y-12227047D01*
X17688017Y-12222291D01*
X17654000Y-12217400D01*
X3532426Y-12217400D01*
X3464305Y-12197398D01*
X3417812Y-12143742D01*
X3407163Y-12077789D01*
X3407631Y-12073478D01*
X3408000Y-12066672D01*
X3408000Y-9094115D01*
X3403525Y-9078876D01*
X3402135Y-9077671D01*
X3394452Y-9076000D01*
X-3389884Y-9076000D01*
X-3405123Y-9080475D01*
X-3406328Y-9081865D01*
X-3407999Y-9089548D01*
X-3407999Y-12066000D01*
X-3428001Y-12134121D01*
X-3481657Y-12180614D01*
X-3533999Y-12192000D01*
X-9364736Y-12192000D01*
X-9368773Y-12192524D01*
X-9368774Y-12192524D01*
X-9425538Y-12199891D01*
X-9425541Y-12199892D01*
X-9429574Y-12200415D01*
X-9491768Y-12216835D01*
X-9552306Y-12241520D01*
X-9555837Y-12243524D01*
X-9555845Y-12243528D01*
X-16072371Y-15942097D01*
X-17592535Y-16804893D01*
X-18591858Y-17372076D01*
X-18660972Y-17388306D01*
X-18727891Y-17364591D01*
X-18763449Y-17325010D01*
X-18764241Y-17323623D01*
X-19526436Y-15989784D01*
X-19561654Y-15942097D01*
X-19601602Y-15899479D01*
X-19606585Y-15894797D01*
X-19619090Y-15883045D01*
X-19619094Y-15883042D01*
X-19625061Y-15877435D01*
X-19632272Y-15873546D01*
X-19632274Y-15873545D01*
X-19668040Y-15854258D01*
X-19712292Y-15830395D01*
X-19723747Y-15826874D01*
X-19777466Y-15810362D01*
X-19777477Y-15810359D01*
X-19780155Y-15809536D01*
X-19790898Y-15807258D01*
X-19815633Y-15802013D01*
X-19815635Y-15802013D01*
X-19824449Y-15800144D01*
X-19833436Y-15800834D01*
X-19833437Y-15800834D01*
X-19868971Y-15803563D01*
X-19923264Y-15807732D01*
X-19991632Y-15826874D01*
X-20057769Y-15856076D01*
X-20061585Y-15858461D01*
X-21870952Y-16989315D01*
X-21870959Y-16989320D01*
X-21873700Y-16991033D01*
X-21914751Y-17022970D01*
X-21951820Y-17058466D01*
X-21968925Y-17076532D01*
X-21972719Y-17083272D01*
X-21972720Y-17083273D01*
X-21999122Y-17130174D01*
X-22017542Y-17162894D01*
X-22039631Y-17230366D01*
X-22049828Y-17274483D01*
X-22044036Y-17373419D01*
X-22026140Y-17442122D01*
X-22024397Y-17446272D01*
X-22024396Y-17446275D01*
X-22014768Y-17469199D01*
X-21998145Y-17508778D01*
X-21995832Y-17512633D01*
X-21995830Y-17512637D01*
X-21287489Y-18693206D01*
X-20061569Y-20736405D01*
X-19839972Y-21105734D01*
X-19808102Y-21148098D01*
X-19772464Y-21186390D01*
X-19753877Y-21204424D01*
X-19712138Y-21228484D01*
X-19710657Y-21229338D01*
X-19661629Y-21280687D01*
X-19648145Y-21350392D01*
X-19674487Y-21416321D01*
X-19732292Y-21457542D01*
X-19773583Y-21464500D01*
X-24292318Y-21464500D01*
X-24360439Y-21444498D01*
X-24386886Y-21418860D01*
X-24388122Y-21419949D01*
X-24393145Y-21414251D01*
X-24397447Y-21407992D01*
X-24515725Y-21302611D01*
X-24523111Y-21298700D01*
X-24649012Y-21232039D01*
X-24649011Y-21232039D01*
X-24655726Y-21228484D01*
X-24809367Y-21189892D01*
X-24816966Y-21189852D01*
X-24816967Y-21189852D01*
X-24882819Y-21189507D01*
X-24967779Y-21189062D01*
X-24975159Y-21190834D01*
X-24975161Y-21190834D01*
X-25114437Y-21224271D01*
X-25114440Y-21224272D01*
X-25121816Y-21226043D01*
X-25262586Y-21298700D01*
X-25381961Y-21402838D01*
X-25473050Y-21532444D01*
X-25475810Y-21539524D01*
X-25521298Y-21656195D01*
X-25530594Y-21680037D01*
X-25531586Y-21687570D01*
X-25531586Y-21687571D01*
X-25549517Y-21823774D01*
X-25551271Y-21837096D01*
X-25542969Y-21912291D01*
X-25537671Y-21960275D01*
X-25533887Y-21994553D01*
X-25531277Y-22001684D01*
X-25531277Y-22001686D01*
X-25483897Y-22131158D01*
X-25479447Y-22143319D01*
X-25475211Y-22149622D01*
X-25475211Y-22149623D01*
X-25426141Y-22222646D01*
X-25391092Y-22274805D01*
X-25385474Y-22279917D01*
X-25286451Y-22370020D01*
X-25273924Y-22381419D01*
X-25134707Y-22457008D01*
X-24981478Y-22497207D01*
X-24897523Y-22498526D01*
X-24830681Y-22499576D01*
X-24830678Y-22499576D01*
X-24823084Y-22499695D01*
X-24668668Y-22464329D01*
X-24553567Y-22406440D01*
X-24533928Y-22396563D01*
X-24533925Y-22396561D01*
X-24527145Y-22393151D01*
X-24521374Y-22388222D01*
X-24521371Y-22388220D01*
X-24412458Y-22295199D01*
X-24412457Y-22295198D01*
X-24406686Y-22290269D01*
X-24396414Y-22275974D01*
X-24340419Y-22232326D01*
X-24294091Y-22223500D01*
X-12245920Y-22223500D01*
X-12221972Y-22226049D01*
X-12220307Y-22226128D01*
X-12210124Y-22228320D01*
X-12199783Y-22227096D01*
X-12176777Y-22224373D01*
X-12170846Y-22224023D01*
X-12170854Y-22223928D01*
X-12165676Y-22223500D01*
X-12160476Y-22223500D01*
X-12155347Y-22222646D01*
X-12155344Y-22222646D01*
X-12141435Y-22220331D01*
X-12135557Y-22219494D01*
X-12094999Y-22214694D01*
X-12094998Y-22214694D01*
X-12084659Y-22213470D01*
X-12076407Y-22209507D01*
X-12067374Y-22208004D01*
X-12058205Y-22203057D01*
X-12058203Y-22203056D01*
X-12022268Y-22183666D01*
X-12016975Y-22180969D01*
X-11977918Y-22162215D01*
X-11977914Y-22162212D01*
X-11970768Y-22158781D01*
X-11966492Y-22155186D01*
X-11964569Y-22153263D01*
X-11962637Y-22151491D01*
X-11962558Y-22151448D01*
X-11962445Y-22151572D01*
X-11961905Y-22151096D01*
X-11956186Y-22148010D01*
X-11919583Y-22108413D01*
X-11916154Y-22104848D01*
X-10547710Y-20736405D01*
X-10485398Y-20702379D01*
X-10458615Y-20699500D01*
X-3892384Y-20699500D01*
X-3824263Y-20719502D01*
X-3803289Y-20736405D01*
X-1711405Y-22828289D01*
X-1677379Y-22890601D01*
X-1674500Y-22917384D01*
X-1674500Y-23004839D01*
X-1694502Y-23072960D01*
X-1748158Y-23119453D01*
X-1756882Y-23123049D01*
X-1772537Y-23128824D01*
X-1946990Y-23232612D01*
X-1951330Y-23236418D01*
X-1951334Y-23236421D01*
X-2095267Y-23362648D01*
X-2099608Y-23366455D01*
X-2225280Y-23525869D01*
X-2227969Y-23530980D01*
X-2227971Y-23530983D01*
X-2317411Y-23700980D01*
X-2366830Y-23751952D01*
X-2435963Y-23768115D01*
X-2502859Y-23744336D01*
X-2542997Y-23689973D01*
X-2545045Y-23690863D01*
X-2632028Y-23490814D01*
X-2636895Y-23481739D01*
X-2752574Y-23302926D01*
X-2758864Y-23294757D01*
X-2902194Y-23137240D01*
X-2909727Y-23130215D01*
X-3076861Y-22998222D01*
X-3085448Y-22992517D01*
X-3271883Y-22889599D01*
X-3281295Y-22885369D01*
X-3482041Y-22814280D01*
X-3492012Y-22811646D01*
X-3563163Y-22798972D01*
X-3576460Y-22800432D01*
X-3581000Y-22814989D01*
X-3581000Y-24258000D01*
X-3601002Y-24326121D01*
X-3654658Y-24372614D01*
X-3707000Y-24384000D01*
X-3963000Y-24384000D01*
X-4031121Y-24363998D01*
X-4077614Y-24310342D01*
X-4089000Y-24258000D01*
X-4089000Y-22813102D01*
X-4092918Y-22799758D01*
X-4107194Y-22797771D01*
X-4145676Y-22803660D01*
X-4155712Y-22806051D01*
X-4358132Y-22872212D01*
X-4367641Y-22876209D01*
X-4556537Y-22974542D01*
X-4565262Y-22980036D01*
X-4624347Y-23024399D01*
X-4690831Y-23049305D01*
X-4760227Y-23034313D01*
X-4810501Y-22984183D01*
X-4826000Y-22923639D01*
X-4826000Y-22478000D01*
X-4826480Y-22473537D01*
X-4831442Y-22427374D01*
X-4831443Y-22427367D01*
X-4831804Y-22424010D01*
X-4835626Y-22406440D01*
X-4842830Y-22373322D01*
X-4842832Y-22373315D01*
X-4843190Y-22371668D01*
X-4850384Y-22345445D01*
X-4878996Y-22295199D01*
X-4896362Y-22264702D01*
X-4896365Y-22264698D01*
X-4899425Y-22259324D01*
X-4930096Y-22223928D01*
X-4944078Y-22207791D01*
X-4944083Y-22207786D01*
X-4945918Y-22205668D01*
X-4978502Y-22174227D01*
X-5066319Y-22128291D01*
X-5134440Y-22108289D01*
X-5138899Y-22107648D01*
X-5138903Y-22107647D01*
X-5170220Y-22103145D01*
X-5206000Y-22098000D01*
X-7494000Y-22098000D01*
X-7497347Y-22098360D01*
X-7497351Y-22098360D01*
X-7544626Y-22103442D01*
X-7544633Y-22103443D01*
X-7547990Y-22103804D01*
X-7551290Y-22104522D01*
X-7551291Y-22104522D01*
X-7598678Y-22114830D01*
X-7598685Y-22114832D01*
X-7600332Y-22115190D01*
X-7626555Y-22122384D01*
X-7650791Y-22136185D01*
X-7707298Y-22168362D01*
X-7707302Y-22168365D01*
X-7712676Y-22171425D01*
X-7717353Y-22175478D01*
X-7762611Y-22214694D01*
X-7766332Y-22217918D01*
X-7797773Y-22250502D01*
X-7843709Y-22338319D01*
X-7863711Y-22406440D01*
X-7874000Y-22478000D01*
X-7874000Y-23498612D01*
X-7894002Y-23566733D01*
X-7947658Y-23613226D01*
X-7999131Y-23624609D01*
X-15314639Y-23675060D01*
X-29501492Y-23772901D01*
X-29569749Y-23753369D01*
X-29610758Y-23711139D01*
X-29614090Y-23705515D01*
X-30112058Y-22865194D01*
X-30247298Y-22636977D01*
X-30247299Y-22636975D01*
X-30248958Y-22634176D01*
X-30250901Y-22631558D01*
X-30278307Y-22594633D01*
X-30278309Y-22594631D01*
X-30280251Y-22592014D01*
X-30315267Y-22553822D01*
X-30317216Y-22551899D01*
X-30327808Y-22541446D01*
X-30327812Y-22541443D01*
X-30333337Y-22535991D01*
X-30372243Y-22513069D01*
X-30413388Y-22488827D01*
X-30413391Y-22488826D01*
X-30418725Y-22485683D01*
X-30424571Y-22483641D01*
X-30424573Y-22483640D01*
X-30483093Y-22463198D01*
X-30483096Y-22463197D01*
X-30485750Y-22462270D01*
X-30529660Y-22451207D01*
X-30616482Y-22454577D01*
X-30622509Y-22454811D01*
X-30628691Y-22455051D01*
X-30697733Y-22471592D01*
X-30701910Y-22473250D01*
X-30701912Y-22473251D01*
X-30735957Y-22486768D01*
X-30764925Y-22498269D01*
X-30768828Y-22500508D01*
X-30768831Y-22500509D01*
X-32495488Y-23490814D01*
X-32772406Y-23649637D01*
X-33986032Y-24345699D01*
X-34029829Y-24377461D01*
X-34032314Y-24379704D01*
X-34032322Y-24379710D01*
X-34068207Y-24412093D01*
X-34068217Y-24412103D01*
X-34069452Y-24413217D01*
X-34088500Y-24432337D01*
X-34138943Y-24517645D01*
X-34140994Y-24523487D01*
X-34160878Y-24580121D01*
X-34162462Y-24584632D01*
X-34173594Y-24628518D01*
X-34173259Y-24637523D01*
X-34173259Y-24637524D01*
X-34173188Y-24639422D01*
X-34169909Y-24727556D01*
X-34153479Y-24796625D01*
X-34126908Y-24863863D01*
X-34058834Y-24982992D01*
X-33843105Y-25360519D01*
X-32103546Y-28404748D01*
X-32087116Y-28473817D01*
X-32110635Y-28540805D01*
X-32166637Y-28584443D01*
X-32212948Y-28593261D01*
X-37796248Y-28593043D01*
X-37864368Y-28573038D01*
X-37910859Y-28519381D01*
X-37922243Y-28466994D01*
X-37919809Y-22258999D01*
X-37899780Y-22190888D01*
X-37856811Y-22149933D01*
X-36979422Y-21643372D01*
X-36979420Y-21643371D01*
X-36968419Y-21637020D01*
X-35579228Y-20834969D01*
X-35510233Y-20818231D01*
X-35443141Y-20841451D01*
X-35407110Y-20881087D01*
X-35031049Y-21532444D01*
X-34990821Y-21602122D01*
X-34980627Y-21624620D01*
X-34976418Y-21637020D01*
X-34968239Y-21646346D01*
X-34968237Y-21646350D01*
X-34959604Y-21656194D01*
X-34959601Y-21656197D01*
X-34909794Y-21712992D01*
X-34819167Y-21757684D01*
X-34806782Y-21758496D01*
X-34806781Y-21758496D01*
X-34778619Y-21760342D01*
X-34718336Y-21764293D01*
X-34718335Y-21764293D01*
X-34646803Y-21740011D01*
X-34646801Y-21740010D01*
X-34634398Y-21735800D01*
X-34634397Y-21735799D01*
X-34622651Y-21731812D01*
X-34613325Y-21723633D01*
X-34613321Y-21723631D01*
X-34612800Y-21723174D01*
X-34592726Y-21708790D01*
X-13872944Y-9746217D01*
X-13850446Y-9736023D01*
X-13849788Y-9735800D01*
X-13849787Y-9735800D01*
X-13838040Y-9731812D01*
X-13762068Y-9665187D01*
X-13717376Y-9574560D01*
X-13710767Y-9473729D01*
X-13735049Y-9402197D01*
X-13735050Y-9402195D01*
X-13735056Y-9402180D01*
X-13739260Y-9389797D01*
X-13739261Y-9389796D01*
X-13743250Y-9378044D01*
X-13751880Y-9368203D01*
X-13766269Y-9348124D01*
X-13919993Y-9081865D01*
X-14182558Y-8627090D01*
X-14199296Y-8558095D01*
X-14196455Y-8549885D01*
X-3408000Y-8549885D01*
X-3403525Y-8565124D01*
X-3402135Y-8566329D01*
X-3394452Y-8568000D01*
X-272115Y-8568000D01*
X-256876Y-8563525D01*
X-255671Y-8562135D01*
X-254000Y-8554452D01*
X-254000Y-8549885D01*
X254000Y-8549885D01*
X258475Y-8565124D01*
X259865Y-8566329D01*
X267548Y-8568000D01*
X3389884Y-8568000D01*
X3405123Y-8563525D01*
X3406328Y-8562135D01*
X3407999Y-8554452D01*
X3407999Y-5577331D01*
X3407629Y-5570510D01*
X3402105Y-5519648D01*
X3398479Y-5504396D01*
X3353324Y-5383946D01*
X3344786Y-5368351D01*
X3268285Y-5266276D01*
X3255724Y-5253715D01*
X3153649Y-5177214D01*
X3138054Y-5168676D01*
X3017606Y-5123522D01*
X3002351Y-5119895D01*
X2951486Y-5114369D01*
X2944672Y-5114000D01*
X272115Y-5114000D01*
X256876Y-5118475D01*
X255671Y-5119865D01*
X254000Y-5127548D01*
X254000Y-8549885D01*
X-254000Y-8549885D01*
X-254000Y-5132116D01*
X-258475Y-5116877D01*
X-259865Y-5115672D01*
X-267548Y-5114001D01*
X-2944669Y-5114001D01*
X-2951490Y-5114371D01*
X-3002352Y-5119895D01*
X-3017604Y-5123521D01*
X-3138054Y-5168676D01*
X-3153649Y-5177214D01*
X-3255724Y-5253715D01*
X-3268285Y-5266276D01*
X-3344786Y-5368351D01*
X-3353324Y-5383946D01*
X-3398478Y-5504394D01*
X-3402105Y-5519649D01*
X-3407631Y-5570514D01*
X-3408000Y-5577328D01*
X-3408000Y-8549885D01*
X-14196455Y-8549885D01*
X-14176076Y-8491003D01*
X-14136439Y-8454971D01*
X-4891856Y-3117608D01*
X-4869334Y-3107406D01*
X-4868719Y-3107197D01*
X-4868718Y-3107197D01*
X-4856969Y-3103211D01*
X-4847637Y-3095032D01*
X-4842058Y-3091812D01*
X-4827706Y-3081864D01*
X-4334588Y-2817229D01*
X-4327631Y-2813768D01*
X-3789932Y-2566606D01*
X-3782775Y-2563580D01*
X-3230868Y-2350031D01*
X-3223539Y-2347452D01*
X-2659520Y-2168328D01*
X-2652045Y-2166205D01*
X-2088673Y-2024848D01*
X-2078031Y-2022178D01*
X-2070451Y-2020523D01*
X-1843838Y-1978312D01*
X-1488684Y-1912157D01*
X-1481005Y-1910970D01*
X-893648Y-1838666D01*
X-885911Y-1837955D01*
X-652359Y-1823735D01*
X-295213Y-1801991D01*
X-287470Y-1801758D01*
X5674Y-1802013D01*
G37*
G04 #@! TD.AperFunction*
M02*
