M48
; DRILL file {KiCad (6.0.2)} date Thu Jun 23 15:07:05 2022
; FORMAT={-:-/ absolute / metric / decimal}
; #@! TF.CreationDate,2022-06-23T15:07:05+02:00
; #@! TF.GenerationSoftware,Kicad,Pcbnew,(6.0.2)
; #@! TF.FileFunction,Plated,1,2,PTH
FMAT,2
METRIC
; #@! TA.AperFunction,Plated,PTH,ViaDrill
T1C0.400
; #@! TA.AperFunction,Plated,PTH,ComponentDrill
T2C1.000
%
G90
G05
T1
X-31.293Y-23.774
X-25.248Y-19.025
X-24.892Y-21.844
X-24.689Y-20.015
X-23.038Y-17.831
X-22.504Y-18.745
X-20.422Y-17.272
X-15.113Y-19.177
X-13.208Y-17.526
X-10.668Y-17.018
X-8.026Y-18.339
X-6.858Y-19.279
X-6.287Y-15.431
X-6.096Y-14.224
X-2.032Y-7.112
X-2.032Y-9.144
X-2.032Y-11.176
X0.0Y-7.112
X0.0Y-9.144
X0.0Y-11.176
X2.032Y-7.112
X2.032Y-9.144
X2.032Y-11.176
X5.588Y-14.478
T2
X-6.375Y-24.13
X-3.835Y-24.13
X-1.295Y-24.13
X1.245Y-24.13
X3.785Y-24.13
X6.325Y-24.13
T0
M30
